<svg width="60" height="51" viewBox="0 0 60 51" fill="none" xmlns="http://www.w3.org/2000/svg">
<path opacity="0.45" d="M40.8655 27.9069C42.2832 28.3206 43.7517 28.534 45.2285 28.5409C47.1086 28.5468 48.9698 28.1659 50.6965 27.4219C49.3235 32.4559 46.0195 41.1389 39.4415 42.1159C39.143 42.1607 38.8639 42.2908 38.6376 42.4906C38.4114 42.6903 38.2478 42.9513 38.1665 43.2419L36.7294 48.3829C36.6691 48.5978 36.6555 48.8232 36.6896 49.0438C36.7238 49.2643 36.8049 49.475 36.9275 49.6616C37.0501 49.8481 37.2113 50.0062 37.4002 50.1251C37.5891 50.244 37.8013 50.321 38.0225 50.3509C38.5099 50.4178 39.0014 50.4513 39.4935 50.4509C47.3935 50.4509 55.2095 42.2099 58.5085 30.4089C60.4455 23.4859 61.0085 13.0749 56.2445 6.52493C53.5715 2.85693 49.6785 0.901917 44.6655 0.703915H44.6044C41.2584 0.707676 38.0266 1.92192 35.5059 4.12243C32.9851 6.32294 31.3456 9.36111 30.8901 12.6761C30.4345 15.991 31.1937 19.3588 33.0274 22.1577C34.861 24.9567 37.6454 26.9977 40.8665 27.9039L40.8655 27.9069Z" fill="#D67E09"/>
<path opacity="0.45" d="M2.14753 21.3619C3.95326 24.5573 6.94836 26.9097 10.4805 27.9069C11.8972 28.3204 13.3647 28.5338 14.8405 28.5409C16.7216 28.5469 18.5838 28.166 20.3115 27.4219C18.9365 32.4559 15.6345 41.1389 9.05653 42.1159C8.75792 42.1603 8.47861 42.2903 8.25233 42.4901C8.02605 42.69 7.86248 42.9511 7.7815 43.2419L6.34553 48.3829C6.28514 48.5976 6.27144 48.8227 6.30543 49.0431C6.33941 49.2635 6.4203 49.4741 6.54255 49.6606C6.6648 49.8471 6.82563 50.0052 7.01417 50.1243C7.20271 50.2434 7.41457 50.3207 7.63551 50.3509C8.12298 50.4178 8.61447 50.4513 9.10651 50.4509C17.0065 50.4509 24.8225 42.2099 28.1235 30.4089C30.0615 23.4859 30.6285 13.0749 25.8565 6.52493C23.1865 2.85693 19.2905 0.898914 14.2775 0.703915H14.2165C11.7972 0.705547 9.42054 1.3404 7.3227 2.54535C5.22486 3.75029 3.47894 5.48337 2.25855 7.57226C1.03816 9.66116 0.385822 12.0331 0.366341 14.4523C0.346859 16.8715 0.960937 19.2537 2.14753 21.3619Z" fill="#D67E09"/>
</svg>
