<svg width="125" height="240" viewBox="0 0 125 240" fill="none" xmlns="http://www.w3.org/2000/svg">
<path d="M30.3648 141.247L39.2536 76.8585L200.572 99.126C218.952 101.663 231.912 118.171 229.462 135.922C227.011 153.674 210.063 166.053 191.683 163.515L30.3648 141.247Z" fill="#F2F2F2"/>
<path d="M35.2239 76.8078C35.3146 76.151 35.6625 75.5572 36.191 75.1569C36.7195 74.7567 37.3854 74.5827 38.0421 74.6733L203.718 97.5422C212.717 98.7843 220.853 103.55 226.338 110.791C231.822 118.033 234.205 127.156 232.963 136.154C231.721 145.152 226.955 153.289 219.714 158.773C212.473 164.258 203.35 166.641 194.351 165.399L28.6723 142.526C28.022 142.428 27.4364 142.077 27.0425 141.551C26.6487 141.024 26.4783 140.363 26.5683 139.712C26.6582 139.06 27.0013 138.47 27.5232 138.07C28.0451 137.67 28.7037 137.491 29.3563 137.573L195.038 160.443C198.86 161.006 202.756 160.806 206.501 159.855C210.246 158.904 213.765 157.221 216.855 154.902C219.946 152.583 222.546 149.675 224.506 146.345C226.466 143.016 227.748 139.331 228.276 135.504C228.804 131.677 228.569 127.783 227.583 124.047C226.598 120.311 224.883 116.807 222.536 113.738C220.189 110.669 217.257 108.095 213.91 106.165C210.563 104.236 206.867 102.988 203.035 102.495L37.3562 79.6226C36.6994 79.5321 36.1055 79.1843 35.705 78.6559C35.3046 78.1275 35.1305 77.4616 35.221 76.8048L35.2239 76.8078Z" fill="#FF9100"/>
<path d="M32.4149 126.387L205.771 150.32C205.837 150.329 205.9 150.35 205.957 150.383C206.014 150.416 206.064 150.46 206.104 150.513C206.144 150.565 206.173 150.625 206.19 150.689C206.206 150.752 206.21 150.819 206.201 150.884C206.192 150.949 206.171 151.012 206.137 151.069C206.104 151.126 206.06 151.176 206.007 151.215C205.954 151.255 205.894 151.284 205.831 151.3C205.767 151.317 205.7 151.32 205.635 151.311L32.2786 127.378C32.1478 127.359 32.0298 127.289 31.9502 127.184C31.8707 127.078 31.8361 126.946 31.8541 126.815C31.8721 126.684 31.9412 126.565 32.0463 126.485C32.1514 126.405 32.2839 126.37 32.4149 126.387Z" fill="#CCCCCC"/>
<path d="M34.0521 114.501L207.409 138.434C207.474 138.443 207.537 138.464 207.594 138.497C207.651 138.53 207.701 138.574 207.741 138.627C207.781 138.679 207.81 138.739 207.827 138.803C207.843 138.866 207.847 138.933 207.839 138.998C207.83 139.063 207.808 139.126 207.774 139.183C207.741 139.24 207.697 139.29 207.644 139.329C207.592 139.369 207.532 139.398 207.468 139.414C207.404 139.431 207.338 139.434 207.272 139.425L33.9172 115.486C33.7864 115.467 33.6683 115.398 33.5888 115.292C33.5092 115.187 33.4746 115.054 33.4926 114.923C33.5106 114.792 33.5797 114.674 33.6848 114.594C33.7899 114.514 33.9224 114.478 34.0534 114.496L34.0521 114.501Z" fill="#CCCCCC"/>
<path d="M35.6966 102.612L209.053 126.545C209.118 126.554 209.181 126.575 209.238 126.608C209.295 126.641 209.345 126.685 209.385 126.738C209.425 126.79 209.454 126.85 209.471 126.914C209.488 126.977 209.492 127.044 209.483 127.109C209.474 127.174 209.452 127.237 209.419 127.294C209.386 127.351 209.341 127.4 209.289 127.44C209.236 127.48 209.176 127.509 209.112 127.525C209.049 127.542 208.982 127.545 208.917 127.536L35.5604 103.603C35.4296 103.584 35.3114 103.514 35.2319 103.409C35.1524 103.303 35.1179 103.17 35.1359 103.04C35.1539 102.909 35.223 102.79 35.328 102.71C35.4331 102.63 35.5656 102.595 35.6966 102.612Z" fill="#CCCCCC"/>
<path d="M37.3377 90.7249L210.694 114.658C210.759 114.667 210.822 114.688 210.879 114.721C210.936 114.754 210.986 114.798 211.026 114.851C211.066 114.903 211.096 114.963 211.112 115.027C211.129 115.09 211.133 115.157 211.124 115.222C211.115 115.287 211.093 115.35 211.06 115.407C211.027 115.464 210.982 115.513 210.93 115.553C210.877 115.593 210.817 115.622 210.753 115.638C210.69 115.655 210.623 115.658 210.558 115.649L37.2023 91.7151C37.137 91.7064 37.074 91.685 37.017 91.6519C36.96 91.6189 36.91 91.5749 36.8701 91.5225C36.8301 91.4701 36.8009 91.4104 36.7841 91.3467C36.7674 91.283 36.7633 91.2165 36.7723 91.1513C36.7813 91.086 36.8031 91.0231 36.8365 90.9663C36.8699 90.9095 36.9141 90.8598 36.9667 90.8201C37.0193 90.7805 37.0793 90.7516 37.1431 90.7352C37.2069 90.7187 37.2733 90.7151 37.3385 90.7244L37.3377 90.7249Z" fill="#CCCCCC"/>
</svg>
