<svg width="31" height="31" viewBox="0 0 31 31" fill="none" xmlns="http://www.w3.org/2000/svg">
<path d="M18.4824 15.4008C18.4824 15.9831 18.3097 16.5523 17.9861 17.0365C17.6626 17.5207 17.2028 17.898 16.6648 18.1208C16.1268 18.3436 15.5348 18.4018 14.9637 18.2881C14.3926 18.1745 13.868 17.894 13.4563 17.4821C13.0446 17.0703 12.7643 16.5457 12.6508 15.9745C12.5373 15.4034 12.5958 14.8114 12.8188 14.2735C13.0417 13.7355 13.4192 13.2758 13.9035 12.9525C14.3878 12.6291 14.957 12.4566 15.5394 12.4568C16.3201 12.4568 17.069 12.767 17.6211 13.3191C18.1732 13.8712 18.4834 14.62 18.4834 15.4008H18.4824Z" fill="white"/>
<path d="M22.4233 10.1928C22.2764 9.8119 22.0515 9.46602 21.7628 9.17737C21.4742 8.88871 21.1283 8.66368 20.7474 8.51678C20.2219 8.32359 19.6672 8.22212 19.1074 8.2168C18.1764 8.1748 17.8964 8.16479 15.5394 8.16479C13.1824 8.16479 12.9024 8.17379 11.9704 8.21579C11.4106 8.22119 10.8559 8.32266 10.3304 8.51578C9.94954 8.66272 9.60365 8.88777 9.315 9.17642C9.02635 9.46507 8.8013 9.81096 8.65436 10.1918C8.46116 10.7173 8.3597 11.272 8.35437 11.8318C8.31237 12.7628 8.30237 13.0418 8.30237 15.4008C8.30237 17.7598 8.31137 18.0378 8.35437 18.9688C8.35966 19.5286 8.46112 20.0834 8.65436 20.6088C8.80125 20.9897 9.02628 21.3356 9.31494 21.6242C9.6036 21.9129 9.9495 22.1379 10.3304 22.2848C10.8558 22.4781 11.4106 22.5796 11.9704 22.5848C12.9014 22.6268 13.1804 22.6358 15.5384 22.6358C17.8964 22.6358 18.1764 22.6268 19.1074 22.5848C19.6672 22.5796 20.222 22.4781 20.7474 22.2848C21.1283 22.1379 21.4742 21.9129 21.7628 21.6242C22.0515 21.3356 22.2764 20.9897 22.4233 20.6088C22.6164 20.0833 22.718 19.5286 22.7234 18.9688C22.7654 18.0378 22.7744 17.7578 22.7744 15.4008C22.7744 13.0438 22.7654 12.7638 22.7234 11.8318C22.7182 11.272 22.6167 10.7172 22.4233 10.1918V10.1928ZM15.5394 19.9358C14.6424 19.9358 13.7656 19.6698 13.0198 19.1715C12.2741 18.6732 11.6928 17.9649 11.3495 17.1363C11.0063 16.3076 10.9165 15.3958 11.0915 14.5161C11.2665 13.6363 11.6984 12.8283 12.3326 12.1941C12.9669 11.5598 13.775 11.1279 14.6547 10.9529C15.5344 10.778 16.4462 10.8678 17.2748 11.211C18.1035 11.5542 18.8117 12.1355 19.3101 12.8813C19.8084 13.6271 20.0743 14.5038 20.0743 15.4008C20.0743 16.6035 19.5966 17.757 18.7461 18.6075C17.8956 19.458 16.7421 19.9358 15.5394 19.9358ZM20.2534 11.7468C20.0437 11.7468 19.8388 11.6846 19.6645 11.5681C19.4902 11.4517 19.3543 11.2861 19.274 11.0924C19.1938 10.8987 19.1728 10.6856 19.2137 10.48C19.2546 10.2744 19.3556 10.0855 19.5038 9.93726C19.6521 9.78901 19.841 9.68806 20.0466 9.64716C20.2522 9.60626 20.4653 9.62726 20.659 9.70749C20.8527 9.78772 21.0182 9.92358 21.1347 10.0979C21.2512 10.2722 21.3134 10.4771 21.3134 10.6868C21.3134 10.9679 21.2017 11.2375 21.0029 11.4363C20.8041 11.6351 20.5345 11.7468 20.2534 11.7468Z" fill="white"/>
<path d="M15.5394 0.09375C12.5122 0.09375 9.55289 0.991434 7.03584 2.67328C4.51878 4.35512 2.55698 6.7456 1.39851 9.5424C0.240032 12.3392 -0.0630803 15.4167 0.527505 18.3858C1.11809 21.3549 2.57586 24.0821 4.71644 26.2227C6.85702 28.3633 9.58428 29.8211 12.5534 30.4117C15.5224 31.0022 18.6 30.6991 21.3968 29.5406C24.1936 28.3822 26.584 26.4204 28.2659 23.9033C29.9477 21.3862 30.8454 18.427 30.8454 15.3997C30.8449 11.3405 29.2321 7.44768 26.3618 4.57736C23.4915 1.70705 19.5986 0.0942803 15.5394 0.09375ZM24.2754 19.0237C24.2611 19.753 24.1231 20.4746 23.8674 21.1577C23.6416 21.7415 23.2964 22.2716 22.8538 22.7142C22.4112 23.1567 21.8811 23.502 21.2974 23.7278C20.6146 23.9833 19.8934 24.1212 19.1644 24.1358C18.2274 24.1788 17.9274 24.1888 15.5404 24.1888C13.1534 24.1888 12.8544 24.1788 11.9164 24.1358C11.1875 24.1213 10.4662 23.9833 9.78339 23.7278C9.19967 23.502 8.66956 23.1567 8.227 22.7142C7.78444 22.2716 7.43922 21.7415 7.21342 21.1577C6.9578 20.4749 6.81983 19.7537 6.8054 19.0247C6.7624 18.0877 6.75242 17.7878 6.75242 15.4008C6.75242 13.0138 6.7624 12.7147 6.8054 11.7767C6.81973 11.0475 6.95771 10.3259 7.21342 9.64275C7.43965 9.05912 7.78516 8.5291 8.22785 8.08658C8.67055 7.64405 9.20068 7.29876 9.7844 7.07275C10.4676 6.81712 11.1891 6.67916 11.9184 6.66475C12.8554 6.62175 13.1554 6.61176 15.5424 6.61176C17.9294 6.61176 18.2284 6.62175 19.1664 6.66475C19.8957 6.6792 20.6172 6.81716 21.3004 7.07275C21.884 7.29899 22.4141 7.64449 22.8566 8.08719C23.2991 8.52988 23.6444 9.06003 23.8704 9.64375C24.1265 10.3268 24.2648 11.0484 24.2794 11.7778C24.3224 12.7148 24.3324 13.0147 24.3324 15.4017C24.3324 17.7887 24.3224 18.0878 24.2794 19.0258L24.2754 19.0237Z" fill="white"/>
</svg>
