<svg width="250" height="245" viewBox="0 0 250 245" fill="none" xmlns="http://www.w3.org/2000/svg">
<path d="M215.038 92.9812L211.806 157.908L49.1416 149.814C30.6082 148.892 16.254 133.577 17.1447 115.677C18.0353 97.7777 33.8392 83.9642 52.3732 84.8871L215.038 92.9812Z" fill="#F2F2F2"/>
<path d="M215.826 157.606C215.792 158.269 215.498 158.891 215.006 159.336C214.515 159.78 213.866 160.012 213.204 159.979L46.1448 151.667C37.0713 151.215 28.5489 147.178 22.4523 140.442C16.3557 133.707 13.1843 124.826 13.6359 115.752C14.0875 106.679 18.125 98.1565 24.8602 92.0599C31.5954 85.9633 40.4766 82.7919 49.5501 83.2435L216.612 91.5599C217.269 91.6007 217.883 91.8986 218.321 92.389C218.76 92.8794 218.987 93.5228 218.954 94.1798C218.922 94.8367 218.631 95.4544 218.146 95.8988C217.662 96.3432 217.021 96.5786 216.364 96.5539L49.2987 88.2406C45.4414 88.0136 41.5772 88.553 37.9295 89.8277C34.2818 91.1024 30.9228 93.0872 28.0464 95.6673C25.17 98.2475 22.8333 101.372 21.1712 104.86C19.5091 108.348 18.5546 112.131 18.3627 115.991C18.1708 119.85 18.7454 123.709 20.0533 127.345C21.3612 130.981 23.3765 134.322 25.9827 137.175C28.589 140.027 31.7346 142.335 35.2379 143.966C38.7412 145.596 42.5327 146.516 46.3936 146.673L213.455 154.988C214.118 155.021 214.74 155.316 215.185 155.807C215.63 156.299 215.861 156.947 215.829 157.609L215.826 157.606Z" fill="#FF9100"/>
<path d="M214.293 107.966L39.4894 99.2637C39.4235 99.2608 39.3589 99.2449 39.2992 99.217C39.2395 99.189 39.186 99.1495 39.1416 99.1008C39.0972 99.0521 39.0629 98.9952 39.0406 98.9331C39.0183 98.8711 39.0085 98.8053 39.0118 98.7395C39.015 98.6737 39.0312 98.6091 39.0595 98.5496C39.0878 98.4901 39.1275 98.4367 39.1765 98.3926C39.2254 98.3485 39.2826 98.3145 39.3447 98.2926C39.4069 98.2706 39.4728 98.2612 39.5386 98.2648L214.343 106.967C214.475 106.974 214.598 107.033 214.687 107.131C214.775 107.23 214.821 107.359 214.815 107.491C214.808 107.623 214.75 107.747 214.652 107.836C214.554 107.925 214.425 107.971 214.293 107.966Z" fill="#CCCCCC"/>
<path d="M213.701 119.951L38.8965 111.248C38.8307 111.246 38.766 111.23 38.7064 111.202C38.6467 111.174 38.5931 111.134 38.5487 111.086C38.5043 111.037 38.47 110.98 38.4477 110.918C38.4254 110.856 38.4156 110.79 38.4189 110.724C38.4221 110.659 38.4384 110.594 38.4666 110.534C38.4949 110.475 38.5346 110.422 38.5836 110.377C38.6326 110.333 38.6898 110.299 38.7519 110.277C38.814 110.255 38.8799 110.246 38.9457 110.25L213.749 118.957C213.881 118.964 214.005 119.024 214.093 119.122C214.181 119.22 214.227 119.349 214.221 119.481C214.214 119.613 214.156 119.737 214.058 119.826C213.961 119.915 213.832 119.962 213.7 119.956L213.701 119.951Z" fill="#CCCCCC"/>
<path d="M213.101 131.939L38.2966 123.237C38.2308 123.234 38.1662 123.218 38.1065 123.19C38.0468 123.162 37.9932 123.123 37.9488 123.074C37.9045 123.026 37.8702 122.968 37.8479 122.906C37.8256 122.844 37.8158 122.779 37.8191 122.713C37.8223 122.647 37.8385 122.582 37.8668 122.523C37.895 122.463 37.9348 122.41 37.9837 122.366C38.0327 122.322 38.0899 122.288 38.152 122.266C38.2142 122.244 38.2801 122.235 38.3459 122.238L213.15 130.94C213.282 130.947 213.406 131.007 213.494 131.105C213.582 131.203 213.628 131.332 213.622 131.464C213.615 131.596 213.557 131.72 213.459 131.809C213.362 131.898 213.233 131.945 213.101 131.939Z" fill="#CCCCCC"/>
<path d="M212.504 143.925L37.7 135.223C37.6341 135.22 37.5695 135.205 37.5098 135.177C37.4501 135.149 37.3966 135.109 37.3522 135.061C37.3078 135.012 37.2735 134.955 37.2512 134.893C37.2289 134.831 37.2191 134.765 37.2223 134.699C37.2256 134.633 37.2418 134.569 37.2701 134.509C37.2984 134.45 37.3381 134.396 37.3871 134.352C37.436 134.308 37.4932 134.274 37.5554 134.252C37.6175 134.23 37.6833 134.221 37.7491 134.224L212.552 142.927C212.618 142.93 212.683 142.946 212.743 142.974C212.802 143.002 212.856 143.041 212.9 143.09C212.945 143.139 212.979 143.196 213.001 143.258C213.023 143.32 213.033 143.385 213.03 143.451C213.027 143.517 213.01 143.582 212.982 143.641C212.954 143.701 212.914 143.754 212.865 143.798C212.816 143.842 212.759 143.876 212.697 143.898C212.635 143.92 212.569 143.93 212.503 143.926L212.504 143.925Z" fill="#CCCCCC"/>
</svg>
