<svg width="136" height="245" viewBox="0 0 136 245" fill="none" xmlns="http://www.w3.org/2000/svg">
<path d="M101.129 93.3381L97.8973 158.265L-64.7675 150.171C-83.3008 149.248 -97.655 133.934 -96.7644 116.034C-95.8737 98.1345 -80.0698 84.321 -61.5359 85.244L101.129 93.3381Z" fill="#F2F2F2"/>
<path d="M101.916 157.963C101.883 158.625 101.589 159.247 101.097 159.692C100.606 160.137 99.9573 160.369 99.2951 160.336L-67.7643 152.023C-76.8377 151.572 -85.3602 147.534 -91.4568 140.799C-97.5534 134.064 -100.725 125.183 -100.273 116.109C-99.8216 107.036 -95.7841 98.5133 -89.0489 92.4167C-82.3136 86.3201 -73.4324 83.1487 -64.359 83.6003L102.703 91.9167C103.36 91.9575 103.974 92.2554 104.412 92.7458C104.851 93.2362 105.078 93.8796 105.045 94.5366C105.013 95.1936 104.722 95.8112 104.237 96.2556C103.752 96.7 103.112 96.9354 102.455 96.9107L-64.6103 88.5974C-68.4677 88.3704 -72.3318 88.9098 -75.9795 90.1845C-79.6273 91.4592 -82.9863 93.444 -85.8627 96.0241C-88.739 98.6043 -91.0757 101.729 -92.7378 105.217C-94.3999 108.705 -95.3545 112.488 -95.5464 116.348C-95.7382 120.207 -95.1636 124.066 -93.8557 127.702C-92.5478 131.338 -90.5326 134.679 -87.9263 137.531C-85.3201 140.384 -82.1745 142.692 -78.6712 144.322C-75.1679 145.953 -71.3763 146.873 -67.5155 147.029L99.5462 155.345C100.208 155.378 100.831 155.672 101.276 156.164C101.721 156.655 101.952 157.304 101.92 157.966L101.916 157.963Z" fill="#FF9100"/>
<path d="M100.384 108.322L-74.4197 99.6204C-74.4855 99.6176 -74.5502 99.6017 -74.6098 99.5738C-74.6695 99.5458 -74.7231 99.5063 -74.7675 99.4576C-74.8118 99.4089 -74.8462 99.3519 -74.8684 99.2899C-74.8907 99.2279 -74.9005 99.1621 -74.8973 99.0963C-74.894 99.0304 -74.8778 98.9659 -74.8496 98.9064C-74.8213 98.8469 -74.7815 98.7935 -74.7326 98.7494C-74.6836 98.7052 -74.6265 98.6713 -74.5643 98.6493C-74.5022 98.6274 -74.4363 98.6179 -74.3705 98.6215L100.434 107.324C100.566 107.331 100.689 107.39 100.778 107.488C100.866 107.586 100.912 107.716 100.906 107.847C100.899 107.979 100.841 108.104 100.743 108.193C100.645 108.282 100.516 108.328 100.384 108.322Z" fill="#CCCCCC"/>
<path d="M99.7914 120.307L-75.0126 111.605C-75.0784 111.602 -75.143 111.586 -75.2027 111.559C-75.2624 111.531 -75.3159 111.491 -75.3603 111.442C-75.4047 111.394 -75.4391 111.337 -75.4613 111.275C-75.4836 111.213 -75.4934 111.147 -75.4902 111.081C-75.4869 111.015 -75.4707 110.951 -75.4424 110.891C-75.4142 110.832 -75.3744 110.778 -75.3255 110.734C-75.2765 110.69 -75.2193 110.656 -75.1572 110.634C-75.095 110.612 -75.0292 110.603 -74.9634 110.606L99.8398 119.314C99.9717 119.321 100.095 119.38 100.184 119.479C100.272 119.577 100.318 119.706 100.312 119.838C100.305 119.97 100.247 120.094 100.149 120.183C100.052 120.272 99.9226 120.319 99.7906 120.313L99.7914 120.307Z" fill="#CCCCCC"/>
<path d="M99.1915 132.296L-75.6125 123.594C-75.6784 123.591 -75.743 123.575 -75.8027 123.547C-75.8624 123.519 -75.9159 123.48 -75.9603 123.431C-76.0047 123.382 -76.039 123.325 -76.0613 123.263C-76.0836 123.201 -76.0934 123.136 -76.0901 123.07C-76.0869 123.004 -76.0707 122.939 -76.0424 122.88C-76.0142 122.82 -75.9744 122.767 -75.9254 122.723C-75.8765 122.679 -75.8193 122.645 -75.7572 122.623C-75.695 122.601 -75.6291 122.591 -75.5633 122.595L99.2407 131.297C99.3726 131.304 99.4964 131.364 99.5848 131.462C99.6733 131.56 99.7193 131.689 99.7128 131.821C99.7063 131.953 99.6478 132.077 99.5501 132.166C99.4524 132.255 99.3235 132.302 99.1915 132.296Z" fill="#CCCCCC"/>
<path d="M98.5949 144.282L-76.2091 135.58C-76.2749 135.577 -76.3395 135.561 -76.3992 135.534C-76.4589 135.506 -76.5125 135.466 -76.5569 135.417C-76.6013 135.369 -76.6356 135.312 -76.6579 135.25C-76.6801 135.188 -76.69 135.122 -76.6867 135.056C-76.6835 134.99 -76.6672 134.926 -76.6389 134.866C-76.6107 134.807 -76.5709 134.753 -76.522 134.709C-76.473 134.665 -76.4158 134.631 -76.3537 134.609C-76.2916 134.587 -76.2257 134.578 -76.1599 134.581L98.6433 143.284C98.7091 143.287 98.7738 143.303 98.8334 143.331C98.8931 143.359 98.9467 143.398 98.9911 143.447C99.0355 143.496 99.0698 143.552 99.0921 143.615C99.1144 143.677 99.1242 143.742 99.1209 143.808C99.1177 143.874 99.1014 143.939 99.0731 143.998C99.0449 144.058 99.0051 144.111 98.9562 144.155C98.9072 144.199 98.85 144.233 98.7879 144.255C98.7258 144.277 98.6599 144.286 98.5941 144.283L98.5949 144.282Z" fill="#CCCCCC"/>
</svg>
