<svg width="263" height="306" viewBox="0 0 263 306" fill="none" xmlns="http://www.w3.org/2000/svg">
<path d="M242.584 0.462036H20.0754C9.02974 0.462036 0.0754395 9.41634 0.0754395 20.462V285.758C0.0754395 296.804 9.02974 305.758 20.0754 305.758H242.584C253.63 305.758 262.584 296.804 262.584 285.758V20.462C262.584 9.41634 253.63 0.462036 242.584 0.462036Z" fill="#FF9100"/>
<path d="M242.584 0.712036H20.0754C9.16782 0.712036 0.325439 9.55441 0.325439 20.462V285.758C0.325439 296.666 9.16782 305.508 20.0754 305.508H242.584C253.492 305.508 262.334 296.666 262.334 285.758V20.462C262.334 9.55441 253.492 0.712036 242.584 0.712036Z" stroke="white" stroke-width="0.5"/>
</svg>
