<svg width="64" height="43" viewBox="0 0 64 43" fill="none" xmlns="http://www.w3.org/2000/svg">
<path d="M32.2113 42.1689C25.5876 42.1249 19.0468 40.692 13.0113 37.9628C12.6524 37.8023 12.348 37.541 12.1349 37.2106C11.9219 36.8802 11.8094 36.495 11.8113 36.1019V19.5889C11.8118 19.0477 12.027 18.5289 12.4097 18.1462C12.7923 17.7636 13.3112 17.5484 13.8523 17.5479H50.5823C51.1235 17.5484 51.6423 17.7636 52.0249 18.1462C52.4076 18.5289 52.6228 19.0477 52.6233 19.5889V36.1048C52.6252 36.498 52.5128 36.8832 52.2997 37.2136C52.0867 37.544 51.7822 37.8053 51.4233 37.9659C45.3839 40.6956 38.8389 42.1275 32.2113 42.1689Z" fill="#FBFBFB" stroke="#FF9100"/>
<path d="M32.2064 28.7909C31.9341 28.7913 31.6645 28.7372 31.4134 28.6319L2.28736 16.3439C1.91149 16.1857 1.59167 15.9185 1.36917 15.5767C1.14668 15.2349 1.03173 14.8343 1.03916 14.4265C1.04658 14.0188 1.17607 13.6226 1.41086 13.2892C1.64565 12.9558 1.97497 12.7003 2.35636 12.5559L31.4824 1.50591C31.9511 1.32616 32.4697 1.32616 32.9384 1.50591L61.6744 12.5559C62.0533 12.7018 62.38 12.9573 62.6129 13.2899C62.8458 13.6225 62.9742 14.0169 62.9817 14.4229C62.9892 14.8288 62.8755 15.2277 62.6551 15.5687C62.4347 15.9097 62.1176 16.1771 61.7444 16.3369L33.0084 28.6249C32.755 28.7338 32.4822 28.7903 32.2064 28.7909Z" fill="#FBFBFB" stroke="#FF9100"/>
<path d="M15.2073 39.087C16.7101 39.087 17.9283 37.8688 17.9283 36.366C17.9283 34.8633 16.7101 33.645 15.2073 33.645C13.7046 33.645 12.4863 34.8633 12.4863 36.366C12.4863 37.8688 13.7046 39.087 15.2073 39.087Z" fill="#FF9100"/>
<path opacity="0.2" d="M61.8453 14.5939L33.1094 26.8779C32.8851 26.9732 32.644 27.0222 32.4003 27.0222C32.1567 27.0222 31.9156 26.9732 31.6914 26.8779L2.56934 14.5979C2.20373 14.4473 1.89868 14.1792 1.70234 13.8359C1.57401 14.0586 1.49451 14.3061 1.46909 14.5619C1.44368 14.8176 1.47292 15.0759 1.55491 15.3195C1.6369 15.5631 1.76976 15.7865 1.94465 15.9748C2.11954 16.1632 2.33248 16.3122 2.56934 16.4119L31.6954 28.7C31.9196 28.7952 32.1607 28.8442 32.4043 28.8442C32.648 28.8442 32.8891 28.7952 33.1133 28.7L61.8503 16.4119C62.0862 16.3114 62.2981 16.162 62.4719 15.9736C62.6458 15.7851 62.7777 15.5619 62.8589 15.3187C62.9401 15.0755 62.9687 14.8179 62.9429 14.5628C62.9172 14.3077 62.8376 14.061 62.7094 13.8389C62.5145 14.1797 62.2125 14.4466 61.8503 14.5979L61.8453 14.5939Z" fill="#FBFBFB"/>
<path d="M15.4354 36.3549C15.5556 36.3549 15.6708 36.3072 15.7557 36.2223C15.8407 36.1373 15.8884 36.0221 15.8884 35.9019V20.7299L30.8434 15.2819C30.9046 15.2856 30.9659 15.2768 31.0237 15.2562C31.0814 15.2355 31.1343 15.2033 31.1793 15.1616C31.2242 15.1199 31.2603 15.0696 31.2852 15.0136C31.3102 14.9576 31.3235 14.8971 31.3245 14.8358C31.3254 14.7745 31.3139 14.7136 31.2907 14.6568C31.2675 14.6001 31.233 14.5486 31.1894 14.5056C31.1458 14.4625 31.0938 14.4287 31.0368 14.4063C30.9797 14.3838 30.9187 14.3732 30.8574 14.3749L15.9024 19.8229C15.782 19.8202 15.6624 19.8419 15.5506 19.8867C15.4389 19.9316 15.3374 19.9987 15.2524 20.0839C15.1665 20.1681 15.0984 20.2687 15.052 20.3796C15.0056 20.4906 14.982 20.6097 14.9824 20.7299V35.9029C14.9827 36.0229 15.0305 36.1379 15.1155 36.2226C15.2004 36.3074 15.3155 36.3549 15.4354 36.3549Z" fill="#FF9100"/>
</svg>
