<svg width="99" height="131" viewBox="0 0 99 131" fill="none" xmlns="http://www.w3.org/2000/svg">
<path d="M96.6145 97.77V129.145H18.0095C9.05346 129.145 1.76648 122.107 1.76648 113.458C1.76648 104.809 9.05346 97.771 18.0095 97.771L96.6145 97.77Z" fill="#F2F2F2"/>
<path d="M98.5444 128.903C98.5444 129.223 98.4173 129.53 98.1909 129.756C97.9646 129.983 97.6575 130.11 97.3374 130.11H16.6074C12.2229 130.11 8.01789 128.368 4.91754 125.268C1.81719 122.168 0.0754395 117.963 0.0754395 113.578C0.0754395 109.193 1.81719 104.988 4.91754 101.888C8.01789 98.7878 12.2229 97.046 16.6074 97.046H97.3374C97.6514 97.0551 97.9495 97.1862 98.1684 97.4114C98.3872 97.6367 98.5097 97.9384 98.5097 98.2525C98.5097 98.5666 98.3872 98.8684 98.1684 99.0936C97.9495 99.3189 97.6514 99.45 97.3374 99.459H16.6074C14.7434 99.4434 12.8946 99.7969 11.1679 100.499C9.44124 101.202 7.87073 102.239 6.54706 103.552C5.22338 104.865 4.17274 106.426 3.45575 108.147C2.73876 109.868 2.3696 111.713 2.3696 113.578C2.3696 115.442 2.73876 117.287 3.45575 119.008C4.17274 120.729 5.22338 122.291 6.54706 123.603C7.87073 124.916 9.44124 125.953 11.1679 126.656C12.8946 127.358 14.7434 127.712 16.6074 127.696H97.3374C97.6575 127.696 97.9646 127.823 98.1909 128.05C98.4173 128.276 98.5444 128.583 98.5444 128.903Z" fill="#FFD297"/>
<path d="M96.6144 105.011H12.1444C12.0804 105.011 12.019 104.986 11.9737 104.94C11.9284 104.895 11.903 104.834 11.903 104.77C11.903 104.706 11.9284 104.644 11.9737 104.599C12.019 104.554 12.0804 104.528 12.1444 104.528H96.6144C96.6785 104.528 96.7399 104.554 96.7852 104.599C96.8305 104.644 96.856 104.706 96.856 104.77C96.856 104.834 96.8305 104.895 96.7852 104.94C96.7399 104.986 96.6785 105.011 96.6144 105.011Z" fill="#CCCCCC"/>
<path d="M96.6144 110.803H12.1444C12.0804 110.803 12.019 110.778 11.9737 110.732C11.9284 110.687 11.903 110.626 11.903 110.562C11.903 110.498 11.9284 110.436 11.9737 110.391C12.019 110.346 12.0804 110.32 12.1444 110.32H96.6144C96.6785 110.32 96.7399 110.346 96.7852 110.391C96.8305 110.436 96.856 110.498 96.856 110.562C96.856 110.626 96.8305 110.687 96.7852 110.732C96.7399 110.778 96.6785 110.803 96.6144 110.803Z" fill="#CCCCCC"/>
<path d="M96.6144 116.595H12.1444C12.0804 116.595 12.019 116.57 11.9737 116.524C11.9284 116.479 11.903 116.418 11.903 116.354C11.903 116.29 11.9284 116.228 11.9737 116.183C12.019 116.138 12.0804 116.112 12.1444 116.112H96.6144C96.6785 116.112 96.7399 116.138 96.7852 116.183C96.8305 116.228 96.856 116.29 96.856 116.354C96.856 116.418 96.8305 116.479 96.7852 116.524C96.7399 116.57 96.6785 116.595 96.6144 116.595Z" fill="#CCCCCC"/>
<path d="M96.6144 122.388H12.1444C12.0804 122.388 12.019 122.363 11.9737 122.317C11.9284 122.272 11.903 122.211 11.903 122.147C11.903 122.082 11.9284 122.021 11.9737 121.976C12.019 121.93 12.0804 121.905 12.1444 121.905H96.6144C96.6785 121.905 96.7399 121.93 96.7852 121.976C96.8305 122.021 96.856 122.082 96.856 122.147C96.856 122.211 96.8305 122.272 96.7852 122.317C96.7399 122.363 96.6785 122.388 96.6144 122.388Z" fill="#CCCCCC"/>
<path d="M63.7834 94.4731H61.0244L59.7124 83.8311H63.7844L63.7834 94.4731Z" fill="#FFB8B8"/>
<path d="M59.0524 93.6841H64.3734V97.0341H55.7024C55.7024 96.1456 56.0553 95.2935 56.6836 94.6653C57.3118 94.037 58.1639 93.6841 59.0524 93.6841Z" fill="#2F2E41"/>
<path d="M35.5954 94.4731H32.8364L31.5244 83.8311H35.5964L35.5954 94.4731Z" fill="#FFB8B8"/>
<path d="M30.8654 93.6841H36.1864V97.0341H27.5154C27.5154 96.1456 27.8683 95.2935 28.4966 94.6653C29.1248 94.037 29.9769 93.6841 30.8654 93.6841Z" fill="#2F2E41"/>
<path d="M44.8114 15.5321V14.3251C44.8114 13.303 45.0127 12.291 45.4038 11.3467C45.795 10.4024 46.3683 9.54442 47.091 8.8217C47.8137 8.09898 48.6717 7.5257 49.616 7.13457C50.5602 6.74343 51.5723 6.54211 52.5944 6.54211C54.6586 6.54211 56.6382 7.36211 58.0978 8.8217C59.5574 10.2813 60.3774 12.2609 60.3774 14.3251V15.5321C60.3774 17.0202 59.7862 18.4474 58.734 19.4997C57.6817 20.552 56.2545 21.1431 54.7664 21.1431H50.4224C48.9343 21.1431 47.5071 20.552 46.4548 19.4997C45.4025 18.4474 44.8114 17.0202 44.8114 15.5321Z" fill="#2F2E41"/>
<path d="M52.5955 21.5591C55.8694 21.5591 58.5235 18.9051 58.5235 15.6311C58.5235 12.3572 55.8694 9.70312 52.5955 9.70312C49.3215 9.70312 46.6675 12.3572 46.6675 15.6311C46.6675 18.9051 49.3215 21.5591 52.5955 21.5591Z" fill="#FFB8B8"/>
<path d="M20.3524 36.0031C20.5926 35.7758 20.8798 35.6039 21.1936 35.4995C21.5074 35.3951 21.8403 35.3608 22.1688 35.3989C22.4973 35.437 22.8135 35.5467 23.095 35.7202C23.3766 35.8937 23.6167 36.1268 23.7984 36.4031L28.8794 35.4421L30.2164 38.3871L23.0214 39.6441C22.5363 39.9189 21.9672 40.006 21.4221 39.8889C20.877 39.7718 20.3939 39.4586 20.0645 39.0088C19.7351 38.559 19.5824 38.0039 19.6353 37.4489C19.6882 36.8939 19.943 36.3776 20.3514 35.9981L20.3524 36.0031Z" fill="#FFB8B8"/>
<path d="M47.9734 25.2911L48.0394 25.3911L39.7064 30.8801L25.6464 35.3701C25.4605 35.43 25.301 35.5523 25.195 35.7163C25.0889 35.8803 25.0428 36.0759 25.0644 36.2701L25.3714 38.9121C25.385 39.029 25.4228 39.1419 25.4825 39.2433C25.5423 39.3448 25.6225 39.4327 25.7182 39.5013C25.8138 39.5699 25.9228 39.6178 26.038 39.6419C26.1533 39.666 26.2723 39.6657 26.3874 39.6411L39.6204 36.8051C40.2608 36.6687 40.8663 36.4022 41.3994 36.0221L50.7604 29.3621C51.2871 29.0012 51.649 28.446 51.7663 27.8184C51.8836 27.1908 51.7467 26.5423 51.3859 26.0156C51.0251 25.4889 50.4698 25.127 49.8422 25.0097C49.2146 24.8924 48.5661 25.0292 48.0394 25.3901L47.9734 25.2911Z" fill="white"/>
<path d="M61.0734 91.4531C60.8614 91.4534 60.6539 91.3919 60.4763 91.2761C60.2987 91.1603 60.1587 90.9952 60.0734 90.8011L47.4245 59.5471C47.395 59.4792 47.3454 59.4221 47.2824 59.3832C47.2194 59.3444 47.1461 59.3258 47.0722 59.33C46.9984 59.3341 46.9276 59.3608 46.8693 59.4064C46.8111 59.452 46.7682 59.5143 46.7465 59.5851L36.4285 90.011C36.3852 90.1528 36.3133 90.2842 36.2173 90.3972C36.1213 90.5101 36.0032 90.6022 35.8703 90.6678C35.7373 90.7334 35.5924 90.771 35.4444 90.7785C35.2963 90.7859 35.1483 90.763 35.0095 90.7111L31.5495 89.411C31.3615 89.3414 31.1965 89.221 31.0729 89.0631C30.9493 88.9053 30.872 88.7163 30.8494 88.5171C29.2924 74.9551 42.8685 40.7241 43.0055 40.3791L43.0434 40.2791L55.4184 43.0171L55.4445 43.045C60.3815 48.431 64.4445 82.4041 65.2035 89.1601C65.232 89.4041 65.1765 89.6506 65.0462 89.8589C64.9159 90.0673 64.7184 90.225 64.4865 90.3061L61.4314 91.386C61.3168 91.4286 61.1957 91.4513 61.0734 91.4531Z" fill="#374B5C"/>
<path d="M50.4104 44.124C47.4104 44.124 44.0694 43.524 43.0404 41.059L43.0164 41.002L43.0484 40.949C43.8604 39.616 44.9344 37.343 44.3574 36.917C43.763 36.4233 43.3017 35.7886 43.0154 35.0709C42.7291 34.3532 42.627 33.5753 42.7184 32.808C42.8018 30.7684 43.5138 28.8044 44.7567 27.185C45.9996 25.5656 47.7127 24.37 49.6614 23.762C50.7907 23.4007 51.94 23.1049 53.1034 22.876C53.9517 22.7049 54.8273 22.7237 55.6675 22.9312C56.5076 23.1387 57.2914 23.5297 57.9624 24.076C58.6428 24.6255 59.1929 25.3188 59.5733 26.1062C59.9537 26.8936 60.1549 27.7556 60.1624 28.63C60.2044 33.006 59.5314 39.1 56.0804 43.284C55.9189 43.4783 55.694 43.6093 55.4454 43.654C53.7836 43.9545 52.0991 44.1118 50.4104 44.124Z" fill="white"/>
<path d="M49.2954 43.963C49.4585 43.3776 49.8462 42.8803 50.3741 42.5792C50.902 42.278 51.5274 42.1975 52.1144 42.355C52.234 42.3884 52.3508 42.4315 52.4634 42.484L56.3214 38.973L59.0043 40.781L53.4864 45.664C53.2375 46.1136 52.8453 46.4668 52.3722 46.6675C51.8992 46.8681 51.3725 46.9046 50.8764 46.771C50.5873 46.6918 50.3169 46.5561 50.0807 46.3717C49.8444 46.1874 49.6471 45.958 49.5001 45.6968C49.3531 45.4357 49.2593 45.148 49.2241 44.8504C49.189 44.5528 49.2132 44.2512 49.2954 43.963Z" fill="#FFB8B8"/>
<path d="M55.7104 44.005C55.46 44.0053 55.2172 43.9187 55.0234 43.7601L53.5024 42.517C53.376 42.4134 53.2747 42.2826 53.2059 42.1343C53.1372 41.9861 53.1027 41.8242 53.1052 41.6608C53.1077 41.4974 53.1471 41.3366 53.2203 41.1905C53.2936 41.0444 53.3989 40.9168 53.5284 40.8171L59.9104 35.923C59.9861 35.8646 60.0356 35.7788 60.0483 35.684C60.0611 35.5893 60.036 35.4934 59.9784 35.4171L56.0394 30.2101C55.5818 29.6072 55.3523 28.8618 55.3914 28.1059C55.4306 27.3501 55.7359 26.6324 56.2534 26.0801C56.7988 25.492 57.5452 25.1302 58.3447 25.0663C59.1442 25.0024 59.9385 25.2411 60.5704 25.7351L60.5954 25.7611L64.7084 31.6501C65.1531 31.9988 65.5111 32.4457 65.7546 32.9557C65.9981 33.4657 66.1204 34.0251 66.1119 34.5901C66.1035 35.1552 65.9646 35.7107 65.7061 36.2132C65.4475 36.7157 65.0763 37.1517 64.6214 37.487L56.3564 43.7951C56.169 43.9322 55.9426 44.0058 55.7104 44.005Z" fill="white"/>
<path d="M47.3445 13.9631V11.0251L52.5955 8.73206L57.6015 11.0251V13.966C57.6015 14.0941 57.5506 14.217 57.46 14.3076C57.3695 14.3982 57.2466 14.4491 57.1185 14.4491H47.8265C47.7629 14.4489 47.7 14.4362 47.6413 14.4117C47.5826 14.3872 47.5293 14.3513 47.4845 14.3062C47.4398 14.261 47.4043 14.2075 47.3803 14.1486C47.3563 14.0897 47.3441 14.0267 47.3445 13.9631Z" fill="#2F2E41"/>
<path d="M52.3534 6.93207C52.0523 5.6699 52.2144 4.34158 52.8101 3.18884C53.4058 2.0361 54.3956 1.13554 55.5994 0.651059C56.8241 0.219041 58.1403 0.11375 59.4182 0.345578C60.6961 0.577406 61.8915 1.13835 62.8864 1.97307C64.8606 3.67912 66.2411 5.96878 66.8284 8.51106C67.4046 11.0382 67.711 13.6193 67.7424 16.2111C68.8566 16.4157 69.8728 16.9806 70.6349 17.8188C71.3969 18.6571 71.8627 19.7224 71.9606 20.851C72.0585 21.9796 71.7832 23.1092 71.1768 24.0661C70.5705 25.0231 69.6667 25.7545 68.6044 26.148C67.542 26.5414 66.3799 26.5752 65.2964 26.2442C64.213 25.9131 63.2683 25.2354 62.6074 24.3153C61.9464 23.3952 61.6059 22.2835 61.6381 21.1511C61.6702 20.0187 62.0733 18.9282 62.7854 18.0471C63.6759 16.9452 64.1733 15.5777 64.1988 14.1612C64.2244 12.7448 63.7767 11.3602 62.9266 10.2269C62.0764 9.09364 60.8725 8.27635 59.5055 7.90451C58.1384 7.53266 56.6864 7.62752 55.3794 8.17405C53.9284 8.77705 52.1064 7.20007 52.3534 6.93207Z" fill="#2F2E41"/>
<path d="M19.2635 24.5941C15.7378 24.571 12.2561 23.8086 9.04347 22.3561C8.85226 22.2709 8.68994 22.132 8.5763 21.9562C8.46267 21.7804 8.40261 21.5754 8.40345 21.3661V12.5771C8.40372 12.2891 8.51823 12.0131 8.72184 11.8095C8.92545 11.6059 9.20151 11.4914 9.48945 11.4911H29.0385C29.3264 11.4914 29.6025 11.6059 29.8061 11.8095C30.0097 12.0131 30.1242 12.2891 30.1245 12.5771V21.3661C30.1253 21.5754 30.0652 21.7804 29.9516 21.9562C29.838 22.132 29.6757 22.2709 29.4845 22.3561C26.2715 23.8087 22.7895 24.5712 19.2635 24.5941Z" fill="white" stroke="#FF9100"/>
<path d="M19.2604 17.4741C19.1155 17.4742 18.972 17.4453 18.8384 17.3891L3.33841 10.8491C3.1385 10.7648 2.96845 10.6225 2.85016 10.4406C2.73187 10.2587 2.67076 10.0456 2.67474 9.82862C2.67872 9.61168 2.74761 9.4009 2.8725 9.22347C2.99738 9.04604 3.17256 8.91009 3.37543 8.83314L18.8754 2.95214C19.1249 2.85645 19.4009 2.85645 19.6504 2.95214L34.9444 8.83314C35.1461 8.91075 35.32 9.04674 35.4439 9.22373C35.5678 9.40072 35.6362 9.61065 35.6401 9.82668C35.6441 10.0427 35.5835 10.255 35.4662 10.4364C35.3488 10.6179 35.1801 10.7602 34.9814 10.8451L19.6864 17.3851C19.5519 17.4432 19.407 17.4735 19.2604 17.4741Z" fill="white" stroke="#FF9100"/>
<path d="M10.2124 22.9541C11.0121 22.9541 11.6604 22.3058 11.6604 21.5061C11.6604 20.7064 11.0121 20.0581 10.2124 20.0581C9.4127 20.0581 8.7644 20.7064 8.7644 21.5061C8.7644 22.3058 9.4127 22.9541 10.2124 22.9541Z" fill="#FF9100"/>
<path d="M10.3334 21.5011C10.3651 21.5011 10.3964 21.4949 10.4257 21.4828C10.4549 21.4707 10.4815 21.4529 10.5039 21.4306C10.5262 21.4082 10.544 21.3816 10.5561 21.3524C10.5682 21.3231 10.5744 21.2918 10.5744 21.2601V13.1841L18.5344 10.2841C18.5661 10.2846 18.5976 10.2788 18.6271 10.2671C18.6566 10.2554 18.6835 10.238 18.7062 10.2159C18.729 10.1938 18.7472 10.1674 18.7597 10.1383C18.7723 10.1092 18.779 10.0779 18.7794 10.0461C18.7799 10.0144 18.7741 9.98294 18.7624 9.95346C18.7507 9.92398 18.7333 9.89709 18.7112 9.87434C18.6891 9.85159 18.6627 9.83342 18.6336 9.82086C18.6045 9.8083 18.5731 9.80161 18.5414 9.80115L10.5814 12.7011C10.5173 12.6997 10.4537 12.7112 10.3942 12.7351C10.3347 12.759 10.2807 12.7947 10.2354 12.8401C10.1896 12.8849 10.1533 12.9385 10.1286 12.9976C10.1038 13.0566 10.0912 13.1201 10.0914 13.1841V21.2581C10.0912 21.29 10.0972 21.3217 10.1093 21.3512C10.1213 21.3807 10.1391 21.4076 10.1617 21.4302C10.1842 21.4528 10.2109 21.4707 10.2404 21.4829C10.2699 21.4951 10.3015 21.5013 10.3334 21.5011Z" fill="#FF9100"/>
</svg>
