<svg width="246" height="239" viewBox="0 0 246 239" fill="none" xmlns="http://www.w3.org/2000/svg">
<path d="M30.2249 140.696L39.1137 76.3072L200.432 98.5747C218.812 101.112 231.772 117.62 229.322 135.371C226.872 153.123 209.923 165.502 191.543 162.964L30.2249 140.696Z" fill="#F2F2F2"/>
<path d="M35.084 76.2565C35.1747 75.5998 35.5226 75.0059 36.0511 74.6057C36.5796 74.2054 37.2455 74.0314 37.9022 74.1221L203.579 96.9909C212.577 98.2331 220.713 102.999 226.198 110.24C231.682 117.481 234.065 126.604 232.823 135.603C231.581 144.601 226.815 152.738 219.574 158.222C212.333 163.706 203.21 166.09 194.211 164.848L28.5325 141.974C27.8821 141.876 27.2965 141.526 26.9026 140.999C26.5088 140.473 26.3384 139.812 26.4284 139.16C26.5183 138.509 26.8614 137.919 27.3833 137.519C27.9052 137.118 28.5638 136.94 29.2164 137.022L194.898 159.892C198.72 160.455 202.617 160.255 206.361 159.304C210.106 158.353 213.625 156.669 216.715 154.35C219.806 152.032 222.406 149.124 224.366 145.794C226.327 142.465 227.608 138.78 228.136 134.953C228.664 131.125 228.429 127.231 227.443 123.495C226.458 119.76 224.743 116.256 222.396 113.187C220.049 110.118 217.117 107.544 213.77 105.614C210.423 103.684 206.727 102.437 202.895 101.944L37.2163 79.0713C36.5595 78.9808 35.9656 78.633 35.5652 78.1046C35.1647 77.5762 34.9906 76.9103 35.0811 76.2535L35.084 76.2565Z" fill="#FF9100"/>
<path d="M32.275 125.836L205.632 149.769C205.697 149.778 205.76 149.799 205.817 149.832C205.874 149.865 205.924 149.909 205.964 149.962C206.004 150.014 206.033 150.074 206.05 150.137C206.066 150.201 206.07 150.268 206.061 150.333C206.052 150.398 206.031 150.461 205.997 150.518C205.964 150.575 205.92 150.624 205.867 150.664C205.814 150.704 205.755 150.732 205.691 150.749C205.627 150.765 205.561 150.769 205.495 150.76L32.1387 126.826C32.0079 126.808 31.8899 126.738 31.8103 126.632C31.7308 126.527 31.6962 126.394 31.7142 126.263C31.7322 126.132 31.8013 126.014 31.9064 125.934C32.0115 125.854 32.144 125.818 32.275 125.836Z" fill="#CCCCCC"/>
<path d="M33.9122 113.95L207.269 137.883C207.334 137.892 207.397 137.913 207.454 137.946C207.511 137.979 207.561 138.023 207.601 138.076C207.641 138.128 207.67 138.188 207.687 138.251C207.704 138.315 207.708 138.382 207.699 138.447C207.69 138.512 207.668 138.575 207.634 138.632C207.601 138.689 207.557 138.738 207.504 138.778C207.452 138.818 207.392 138.847 207.328 138.863C207.264 138.879 207.198 138.883 207.132 138.874L33.7773 114.935C33.6465 114.916 33.5284 114.847 33.4489 114.741C33.3693 114.635 33.3347 114.503 33.3527 114.372C33.3708 114.241 33.4399 114.123 33.5449 114.042C33.65 113.962 33.7825 113.927 33.9135 113.944L33.9122 113.95Z" fill="#CCCCCC"/>
<path d="M35.5567 102.061L208.913 125.994C208.979 126.003 209.041 126.024 209.099 126.057C209.156 126.09 209.205 126.134 209.245 126.186C209.285 126.239 209.315 126.299 209.331 126.362C209.348 126.426 209.352 126.492 209.343 126.558C209.334 126.623 209.312 126.686 209.279 126.743C209.246 126.8 209.201 126.849 209.149 126.889C209.096 126.928 209.036 126.957 208.972 126.974C208.909 126.99 208.842 126.994 208.777 126.985L35.4205 103.051C35.2897 103.033 35.1716 102.963 35.092 102.857C35.0125 102.752 34.978 102.619 34.996 102.488C35.014 102.357 35.0831 102.239 35.1881 102.159C35.2932 102.079 35.4257 102.043 35.5567 102.061Z" fill="#CCCCCC"/>
<path d="M37.1978 90.1737L210.554 114.107C210.62 114.116 210.683 114.137 210.74 114.17C210.797 114.203 210.847 114.247 210.886 114.299C210.926 114.352 210.956 114.412 210.972 114.475C210.989 114.539 210.993 114.605 210.984 114.671C210.975 114.736 210.953 114.799 210.92 114.856C210.887 114.913 210.842 114.962 210.79 115.002C210.737 115.042 210.677 115.07 210.614 115.087C210.55 115.103 210.483 115.107 210.418 115.098L37.0624 91.1638C36.9971 91.1552 36.9341 91.1337 36.8771 91.1007C36.8201 91.0676 36.7701 91.0237 36.7302 90.9713C36.6902 90.9189 36.661 90.8591 36.6442 90.7954C36.6275 90.7317 36.6235 90.6653 36.6324 90.6C36.6414 90.5347 36.6633 90.4719 36.6966 90.415C36.73 90.3582 36.7742 90.3085 36.8268 90.2689C36.8794 90.2292 36.9394 90.2003 37.0032 90.1839C37.067 90.1675 37.1334 90.1638 37.1986 90.1732L37.1978 90.1737Z" fill="#CCCCCC"/>
</svg>
