<svg width="32" height="31" viewBox="0 0 32 31" fill="none" xmlns="http://www.w3.org/2000/svg">
<path d="M15.7944 0.34375C12.7672 0.34375 9.8079 1.24143 7.29084 2.92328C4.77378 4.60512 2.81199 6.9956 1.65351 9.7924C0.495037 12.5892 0.191925 15.6667 0.78251 18.6358C1.3731 21.6049 2.83086 24.3321 4.97144 26.4727C7.11203 28.6133 9.83928 30.0711 12.8084 30.6617C15.7774 31.2522 18.855 30.9491 21.6518 29.7906C24.4486 28.6322 26.839 26.6704 28.5209 24.1533C30.2027 21.6362 31.1004 18.677 31.1004 15.6497C31.0999 11.5905 29.4871 7.69768 26.6168 4.82736C23.7465 1.95705 19.8537 0.34428 15.7944 0.34375ZM22.7834 12.2778C22.7901 12.4284 22.7934 12.5798 22.7934 12.7318C22.803 14.0476 22.5509 15.3523 22.0517 16.5699C21.5526 17.7875 20.8163 18.8937 19.8858 19.8242C18.9553 20.7547 17.8491 21.4909 16.6315 21.9901C15.414 22.4892 14.1093 22.7413 12.7934 22.7318C10.8841 22.7336 9.01471 22.1858 7.40843 21.1537C7.68656 21.1865 7.96636 21.2029 8.24641 21.2027C9.82781 21.2062 11.3645 20.6779 12.6094 19.7027C11.8763 19.6889 11.1658 19.4463 10.5773 19.0088C9.98884 18.5713 9.55182 17.9608 9.3274 17.2628C9.85401 17.3646 10.397 17.3441 10.9144 17.2027C10.1194 17.0421 9.40442 16.6114 8.89079 15.9836C8.37716 15.3559 8.0965 14.5698 8.09641 13.7587C8.09641 13.7427 8.09641 13.7287 8.09641 13.7137C8.58402 13.9852 9.12961 14.1357 9.68742 14.1528C8.94352 13.6561 8.4169 12.8945 8.21476 12.0232C8.01263 11.1518 8.15016 10.2362 8.5994 9.46275C9.48162 10.5483 10.5823 11.4361 11.83 12.0685C13.0776 12.701 14.4444 13.0639 15.8414 13.1337C15.6667 12.3806 15.7451 11.5909 16.0646 10.8868C16.384 10.1828 16.9267 9.60372 17.6085 9.23927C18.2904 8.87483 19.0734 8.74535 19.8363 8.8709C20.5991 8.99644 21.2993 9.37001 21.8284 9.93375C22.6152 9.77843 23.3697 9.48996 24.0594 9.08075C23.7969 9.89424 23.2479 10.5847 22.5144 11.0237C23.2106 10.9414 23.8905 10.755 24.5314 10.4707C24.0601 11.1764 23.4668 11.7923 22.7794 12.2897L22.7834 12.2778Z" fill="white"/>
</svg>
