<svg width="32" height="32" viewBox="0 0 32 32" fill="none" xmlns="http://www.w3.org/2000/svg">
<path d="M16.1284 0.526611C13.1008 0.526611 10.1412 1.42438 7.6238 3.10645C5.10641 4.78851 3.14431 7.17933 1.98568 9.9765C0.827053 12.7737 0.523923 15.8516 1.11459 18.821C1.70525 21.7905 3.16318 24.5181 5.30404 26.659C7.4449 28.7999 10.1725 30.2578 13.142 30.8484C16.1115 31.4391 19.1894 31.136 21.9866 29.9774C24.7838 28.8187 27.1745 26.8567 28.8566 24.3393C30.5387 21.8219 31.4365 18.8622 31.4365 15.8346C31.4362 11.7747 29.8233 7.88125 26.9525 5.0105C24.0818 2.13975 20.1883 0.526877 16.1284 0.526611ZM11.6804 23.6676H7.95248V12.4516H11.6804V23.6676ZM9.82046 10.9196H9.79647C9.23261 10.9164 8.69301 10.6898 8.29598 10.2894C7.89895 9.88903 7.6769 9.3475 7.67849 8.78363C7.68008 8.21976 7.90519 7.67953 8.30447 7.28137C8.70374 6.88322 9.24456 6.65967 9.80843 6.65967C10.3723 6.65967 10.9132 6.88322 11.3125 7.28137C11.7117 7.67953 11.9368 8.21976 11.9384 8.78363C11.94 9.3475 11.718 9.88903 11.3209 10.2894C10.9239 10.6898 10.3843 10.9164 9.82046 10.9196ZM25.1204 23.6676H21.3925V17.6676C21.3925 16.1596 20.8524 15.1306 19.5034 15.1306C19.083 15.133 18.6735 15.2652 18.3311 15.5092C17.9886 15.7531 17.73 16.097 17.5905 16.4936C17.4948 16.787 17.453 17.0953 17.4674 17.4036V23.6666H13.7395C13.7395 23.6666 13.7885 13.5026 13.7395 12.4506H17.4674V14.0386C17.8048 13.4525 18.2964 12.97 18.8888 12.6437C19.4812 12.3173 20.1517 12.1596 20.8275 12.1876C23.2805 12.1876 25.1195 13.7876 25.1195 17.2356L25.1204 23.6676Z" fill="white"/>
</svg>
