<svg width="99" height="131" viewBox="0 0 99 131" fill="none" xmlns="http://www.w3.org/2000/svg">
<path d="M96.6145 98.0064V129.381H18.0095C9.05346 129.381 1.76648 122.343 1.76648 113.694C1.76648 105.045 9.05346 98.0074 18.0095 98.0074L96.6145 98.0064Z" fill="#F2F2F2"/>
<path d="M98.5444 129.139C98.5444 129.46 98.4173 129.767 98.1909 129.993C97.9646 130.219 97.6575 130.346 97.3374 130.346H16.6074C12.2229 130.346 8.01789 128.605 4.91754 125.504C1.81719 122.404 0.0754395 118.199 0.0754395 113.814C0.0754395 109.43 1.81719 105.225 4.91754 102.125C8.01789 99.0242 12.2229 97.2824 16.6074 97.2824H97.3374C97.6514 97.2914 97.9495 97.4226 98.1684 97.6478C98.3872 97.8731 98.5097 98.1748 98.5097 98.4889C98.5097 98.803 98.3872 99.1047 98.1684 99.33C97.9495 99.5553 97.6514 99.6864 97.3374 99.6954H16.6074C14.7434 99.6797 12.8946 100.033 11.1679 100.736C9.44124 101.438 7.87073 102.476 6.54706 103.788C5.22338 105.101 4.17274 106.663 3.45575 108.383C2.73876 110.104 2.3696 111.95 2.3696 113.814C2.3696 115.678 2.73876 117.524 3.45575 119.244C4.17274 120.965 5.22338 122.527 6.54706 123.839C7.87073 125.152 9.44124 126.19 11.1679 126.892C12.8946 127.595 14.7434 127.948 16.6074 127.932H97.3374C97.6575 127.932 97.9646 128.06 98.1909 128.286C98.4173 128.512 98.5444 128.819 98.5444 129.139Z" fill="#FF9100"/>
<path d="M96.6144 105.247H12.1444C12.0804 105.247 12.019 105.222 11.9737 105.177C11.9284 105.131 11.903 105.07 11.903 105.006C11.903 104.942 11.9284 104.88 11.9737 104.835C12.019 104.79 12.0804 104.764 12.1444 104.764H96.6144C96.6785 104.764 96.7399 104.79 96.7852 104.835C96.8305 104.88 96.856 104.942 96.856 105.006C96.856 105.07 96.8305 105.131 96.7852 105.177C96.7399 105.222 96.6785 105.247 96.6144 105.247Z" fill="#CCCCCC"/>
<path d="M96.6144 111.039H12.1444C12.0804 111.039 12.019 111.014 11.9737 110.969C11.9284 110.923 11.903 110.862 11.903 110.798C11.903 110.734 11.9284 110.672 11.9737 110.627C12.019 110.582 12.0804 110.556 12.1444 110.556H96.6144C96.6785 110.556 96.7399 110.582 96.7852 110.627C96.8305 110.672 96.856 110.734 96.856 110.798C96.856 110.862 96.8305 110.923 96.7852 110.969C96.7399 111.014 96.6785 111.039 96.6144 111.039Z" fill="#CCCCCC"/>
<path d="M96.6144 116.831H12.1444C12.0804 116.831 12.019 116.806 11.9737 116.761C11.9284 116.715 11.903 116.654 11.903 116.59C11.903 116.526 11.9284 116.464 11.9737 116.419C12.019 116.374 12.0804 116.348 12.1444 116.348H96.6144C96.6785 116.348 96.7399 116.374 96.7852 116.419C96.8305 116.464 96.856 116.526 96.856 116.59C96.856 116.654 96.8305 116.715 96.7852 116.761C96.7399 116.806 96.6785 116.831 96.6144 116.831Z" fill="#CCCCCC"/>
<path d="M96.6144 122.624H12.1444C12.0804 122.624 12.019 122.599 11.9737 122.554C11.9284 122.508 11.903 122.447 11.903 122.383C11.903 122.319 11.9284 122.257 11.9737 122.212C12.019 122.167 12.0804 122.141 12.1444 122.141H96.6144C96.6785 122.141 96.7399 122.167 96.7852 122.212C96.8305 122.257 96.856 122.319 96.856 122.383C96.856 122.447 96.8305 122.508 96.7852 122.554C96.7399 122.599 96.6785 122.624 96.6144 122.624Z" fill="#CCCCCC"/>
<path d="M63.7834 94.7094H61.0244L59.7124 84.0674H63.7844L63.7834 94.7094Z" fill="#FFB8B8"/>
<path d="M59.0524 93.9204H64.3734V97.2704H55.7024C55.7024 96.3819 56.0553 95.5298 56.6836 94.9016C57.3118 94.2733 58.1639 93.9204 59.0524 93.9204Z" fill="#2F2E41"/>
<path d="M35.5954 94.7094H32.8364L31.5244 84.0674H35.5964L35.5954 94.7094Z" fill="#FFB8B8"/>
<path d="M30.8654 93.9204H36.1864V97.2704H27.5154C27.5154 96.3819 27.8683 95.5298 28.4966 94.9016C29.1248 94.2733 29.9769 93.9204 30.8654 93.9204Z" fill="#2F2E41"/>
<path d="M44.8114 15.7684V14.5614C44.8114 13.5393 45.0127 12.5272 45.4038 11.583C45.795 10.6387 46.3683 9.78069 47.091 9.05797C47.8137 8.33525 48.6717 7.76197 49.616 7.37083C50.5602 6.9797 51.5723 6.77838 52.5944 6.77838C54.6586 6.77838 56.6382 7.59837 58.0978 9.05797C59.5574 10.5176 60.3774 12.4972 60.3774 14.5614V15.7684C60.3774 17.2565 59.7862 18.6837 58.734 19.736C57.6817 20.7882 56.2545 21.3794 54.7664 21.3794H50.4224C48.9343 21.3794 47.5071 20.7882 46.4548 19.736C45.4025 18.6837 44.8114 17.2565 44.8114 15.7684Z" fill="#2F2E41"/>
<path d="M52.5955 21.7954C55.8694 21.7954 58.5235 19.1413 58.5235 15.8674C58.5235 12.5934 55.8694 9.93939 52.5955 9.93939C49.3215 9.93939 46.6675 12.5934 46.6675 15.8674C46.6675 19.1413 49.3215 21.7954 52.5955 21.7954Z" fill="#FFB8B8"/>
<path d="M20.3524 36.2394C20.5926 36.0121 20.8798 35.8402 21.1936 35.7358C21.5074 35.6314 21.8403 35.5971 22.1688 35.6352C22.4973 35.6733 22.8135 35.783 23.095 35.9565C23.3766 36.13 23.6167 36.3631 23.7984 36.6394L28.8794 35.6784L30.2164 38.6234L23.0214 39.8804C22.5363 40.1552 21.9672 40.2424 21.4221 40.1253C20.877 40.0082 20.3939 39.6949 20.0645 39.2451C19.7351 38.7953 19.5824 38.2402 19.6353 37.6852C19.6882 37.1302 19.943 36.6139 20.3514 36.2344L20.3524 36.2394Z" fill="#FFB8B8"/>
<path d="M47.9734 25.5274L48.0394 25.6274L39.7064 31.1164L25.6464 35.6064C25.4605 35.6663 25.301 35.7886 25.195 35.9526C25.0889 36.1167 25.0428 36.3123 25.0644 36.5064L25.3714 39.1484C25.385 39.2653 25.4228 39.3782 25.4825 39.4797C25.5423 39.5811 25.6225 39.669 25.7182 39.7376C25.8138 39.8063 25.9228 39.8541 26.038 39.8782C26.1533 39.9023 26.2723 39.902 26.3874 39.8774L39.6204 37.0414C40.2608 36.905 40.8663 36.6385 41.3994 36.2584L50.7604 29.5984C51.2871 29.2376 51.649 28.6823 51.7663 28.0547C51.8836 27.4271 51.7467 26.7786 51.3859 26.2519C51.0251 25.7252 50.4698 25.3634 49.8422 25.2461C49.2146 25.1288 48.5661 25.2656 48.0394 25.6264L47.9734 25.5274Z" fill="#D67E09"/>
<path d="M61.0734 91.6894C60.8614 91.6898 60.6539 91.6283 60.4763 91.5125C60.2987 91.3966 60.1587 91.2315 60.0734 91.0374L47.4245 59.7834C47.395 59.7155 47.3454 59.6584 47.2824 59.6196C47.2194 59.5808 47.1461 59.5622 47.0722 59.5663C46.9984 59.5705 46.9276 59.5971 46.8693 59.6427C46.8111 59.6883 46.7682 59.7507 46.7465 59.8214L36.4285 90.2474C36.3852 90.3891 36.3133 90.5205 36.2173 90.6335C36.1213 90.7464 36.0032 90.8385 35.8703 90.9041C35.7373 90.9697 35.5924 91.0074 35.4444 91.0148C35.2963 91.0222 35.1483 90.9993 35.0095 90.9474L31.5495 89.6474C31.3615 89.5777 31.1965 89.4573 31.0729 89.2995C30.9493 89.1416 30.872 88.9526 30.8494 88.7534C29.2924 75.1914 42.8685 40.9604 43.0055 40.6154L43.0434 40.5154L55.4184 43.2534L55.4445 43.2814C60.3815 48.6674 64.4445 82.6404 65.2035 89.3964C65.232 89.6405 65.1765 89.887 65.0462 90.0953C64.9159 90.3036 64.7184 90.4613 64.4865 90.5424L61.4314 91.6224C61.3168 91.6649 61.1957 91.6876 61.0734 91.6894Z" fill="#374B5C"/>
<path d="M50.4104 44.3603C47.4104 44.3603 44.0694 43.7604 43.0404 41.2954L43.0164 41.2384L43.0484 41.1854C43.8604 39.8524 44.9344 37.5793 44.3574 37.1533C43.763 36.6596 43.3017 36.025 43.0154 35.3073C42.7291 34.5896 42.627 33.8116 42.7184 33.0444C42.8018 31.0047 43.5138 29.0407 44.7567 27.4213C45.9996 25.8019 47.7127 24.6064 49.6614 23.9983C50.7907 23.637 51.94 23.3412 53.1034 23.1124C53.9517 22.9412 54.8273 22.96 55.6675 23.1675C56.5076 23.375 57.2914 23.766 57.9624 24.3124C58.6428 24.8618 59.1929 25.5551 59.5733 26.3425C59.9537 27.13 60.1549 27.9919 60.1624 28.8664C60.2044 33.2424 59.5314 39.3363 56.0804 43.5203C55.9189 43.7146 55.694 43.8456 55.4454 43.8903C53.7836 44.1908 52.0991 44.3481 50.4104 44.3603Z" fill="#D67E09"/>
<path d="M49.2954 44.1994C49.4585 43.614 49.8462 43.1167 50.3741 42.8156C50.902 42.5144 51.5274 42.4339 52.1144 42.5914C52.234 42.6248 52.3508 42.6679 52.4634 42.7204L56.3214 39.2094L59.0043 41.0174L53.4864 45.9004C53.2375 46.3499 52.8453 46.7032 52.3722 46.9039C51.8992 47.1045 51.3725 47.141 50.8764 47.0074C50.5873 46.9282 50.3169 46.7925 50.0807 46.6081C49.8444 46.4237 49.6471 46.1944 49.5001 45.9332C49.3531 45.6721 49.2593 45.3844 49.2241 45.0868C49.189 44.7892 49.2132 44.4876 49.2954 44.1994Z" fill="#FFB8B8"/>
<path d="M55.7104 44.2414C55.46 44.2416 55.2172 44.155 55.0234 43.9964L53.5024 42.7534C53.376 42.6497 53.2747 42.5189 53.2059 42.3706C53.1372 42.2224 53.1027 42.0605 53.1052 41.8971C53.1077 41.7337 53.1471 41.573 53.2203 41.4269C53.2936 41.2808 53.3989 41.1531 53.5284 41.0534L59.9104 36.1594C59.9861 36.101 60.0356 36.0151 60.0483 35.9204C60.0611 35.8256 60.036 35.7297 59.9784 35.6534L56.0394 30.4464C55.5818 29.8435 55.3523 29.0981 55.3914 28.3423C55.4306 27.5864 55.7359 26.8688 56.2534 26.3164C56.7988 25.7283 57.5452 25.3665 58.3447 25.3027C59.1442 25.2388 59.9385 25.4774 60.5704 25.9714L60.5954 25.9974L64.7084 31.8864C65.1531 32.2352 65.5111 32.682 65.7546 33.192C65.9981 33.702 66.1204 34.2614 66.1119 34.8265C66.1035 35.3915 65.9646 35.947 65.7061 36.4495C65.4475 36.9521 65.0763 37.388 64.6214 37.7234L56.3564 44.0314C56.169 44.1685 55.9426 44.2421 55.7104 44.2414Z" fill="#D67E09"/>
<path d="M47.3445 14.1994V11.2614L52.5955 8.96838L57.6015 11.2614V14.2024C57.6015 14.3305 57.5506 14.4533 57.46 14.5439C57.3695 14.6345 57.2466 14.6854 57.1185 14.6854H47.8265C47.7629 14.6852 47.7 14.6726 47.6413 14.648C47.5826 14.6235 47.5293 14.5877 47.4845 14.5425C47.4398 14.4973 47.4043 14.4438 47.3803 14.3849C47.3563 14.326 47.3441 14.263 47.3445 14.1994Z" fill="#2F2E41"/>
<path d="M52.3534 7.16839C52.0523 5.90623 52.2144 4.57791 52.8101 3.42517C53.4058 2.27243 54.3956 1.37187 55.5994 0.887387C56.8241 0.455369 58.1403 0.350079 59.4182 0.581907C60.6961 0.813735 61.8915 1.37468 62.8864 2.20939C64.8606 3.91545 66.2411 6.20511 66.8284 8.74739C67.4046 11.2745 67.711 13.8556 67.7424 16.4474C68.8566 16.6521 69.8728 17.2169 70.6349 18.0552C71.3969 18.8934 71.8627 19.9587 71.9606 21.0873C72.0585 22.216 71.7832 23.3455 71.1768 24.3025C70.5705 25.2594 69.6667 25.9908 68.6044 26.3843C67.542 26.7778 66.3799 26.8116 65.2964 26.4805C64.213 26.1494 63.2683 25.4717 62.6074 24.5516C61.9464 23.6315 61.6059 22.5199 61.6381 21.3874C61.6702 20.255 62.0733 19.1645 62.7854 18.2834C63.6759 17.1815 64.1733 15.814 64.1988 14.3976C64.2244 12.9811 63.7767 11.5966 62.9266 10.4633C62.0764 9.32997 60.8725 8.51268 59.5055 8.14084C58.1384 7.76899 56.6864 7.86384 55.3794 8.41038C53.9284 9.01338 52.1064 7.43639 52.3534 7.16839Z" fill="#2F2E41"/>
<path d="M19.2635 24.8304C15.7378 24.8073 12.2561 24.0449 9.04347 22.5924C8.85226 22.5073 8.68994 22.3683 8.5763 22.1926C8.46267 22.0168 8.40261 21.8117 8.40345 21.6024V12.8134C8.40372 12.5255 8.51823 12.2494 8.72184 12.0458C8.92545 11.8422 9.20151 11.7277 9.48945 11.7274H29.0385C29.3264 11.7277 29.6025 11.8422 29.8061 12.0458C30.0097 12.2494 30.1242 12.5255 30.1245 12.8134V21.6024C30.1253 21.8117 30.0652 22.0168 29.9516 22.1926C29.838 22.3683 29.6757 22.5073 29.4845 22.5924C26.2715 24.0451 22.7895 24.8075 19.2635 24.8304Z" fill="#FF9100"/>
<path d="M19.2604 17.7104C19.1155 17.7105 18.972 17.6816 18.8384 17.6254L3.33841 11.0854C3.1385 11.0011 2.96845 10.8588 2.85016 10.6769C2.73187 10.495 2.67076 10.2818 2.67474 10.0649C2.67872 9.84795 2.74761 9.63717 2.8725 9.45974C2.99738 9.28231 3.17256 9.14635 3.37543 9.0694L18.8754 3.18841C19.1249 3.09272 19.4009 3.09272 19.6504 3.18841L34.9444 9.0694C35.1461 9.14702 35.32 9.28301 35.4439 9.46C35.5678 9.63699 35.6362 9.84692 35.6401 10.0629C35.6441 10.279 35.5835 10.4913 35.4662 10.6727C35.3488 10.8541 35.1801 10.9964 34.9814 11.0814L19.6864 17.6214C19.5519 17.6795 19.407 17.7097 19.2604 17.7104Z" fill="#FF9100"/>
<path d="M10.2124 23.1904C11.0121 23.1904 11.6604 22.5421 11.6604 21.7424C11.6604 20.9427 11.0121 20.2944 10.2124 20.2944C9.4127 20.2944 8.7644 20.9427 8.7644 21.7424C8.7644 22.5421 9.4127 23.1904 10.2124 23.1904Z" fill="white"/>
<path opacity="0.2" d="M35.0354 10.1544L19.7404 16.6944C19.621 16.7451 19.4926 16.7712 19.3629 16.7712C19.2332 16.7712 19.1048 16.7451 18.9854 16.6944L3.48538 10.1544C3.2905 10.0742 3.12791 9.93138 3.02337 9.74841C2.9551 9.86698 2.91283 9.99869 2.89935 10.1348C2.88587 10.271 2.9015 10.4085 2.94519 10.5381C2.98888 10.6678 3.05963 10.7866 3.15277 10.8869C3.2459 10.9871 3.35927 11.0664 3.48538 11.1194L18.9854 17.6594C19.1048 17.7102 19.2332 17.7363 19.3629 17.7363C19.4926 17.7363 19.621 17.7102 19.7404 17.6594L35.0354 11.1194C35.1608 11.0658 35.2734 10.9863 35.3658 10.886C35.4582 10.7857 35.5283 10.667 35.5715 10.5376C35.6147 10.4082 35.63 10.2712 35.6163 10.1355C35.6027 9.99984 35.5605 9.86858 35.4924 9.75041C35.3887 9.93175 35.2281 10.0738 35.0354 10.1544Z" fill="black"/>
<path d="M10.3334 21.7374C10.3651 21.7374 10.3964 21.7312 10.4257 21.7191C10.4549 21.707 10.4815 21.6892 10.5039 21.6668C10.5262 21.6444 10.544 21.6179 10.5561 21.5886C10.5682 21.5594 10.5744 21.5281 10.5744 21.4964V13.4204L18.5344 10.5204C18.5661 10.5209 18.5976 10.5151 18.6271 10.5034C18.6566 10.4917 18.6835 10.4742 18.7062 10.4521C18.729 10.43 18.7472 10.4037 18.7597 10.3746C18.7723 10.3454 18.779 10.3141 18.7794 10.2824C18.7799 10.2507 18.7741 10.2192 18.7624 10.1897C18.7507 10.1603 18.7333 10.1334 18.7112 10.1106C18.6891 10.0879 18.6627 10.0697 18.6336 10.0571C18.6045 10.0446 18.5731 10.0379 18.5414 10.0374L10.5814 12.9374C10.5173 12.9359 10.4537 12.9475 10.3942 12.9714C10.3347 12.9953 10.2807 13.031 10.2354 13.0764C10.1896 13.1212 10.1533 13.1747 10.1286 13.2338C10.1038 13.2929 10.0912 13.3564 10.0914 13.4204V21.4944C10.0912 21.5263 10.0972 21.5579 10.1093 21.5875C10.1213 21.617 10.1391 21.6439 10.1617 21.6665C10.1842 21.6891 10.2109 21.707 10.2404 21.7192C10.2699 21.7313 10.3015 21.7375 10.3334 21.7374Z" fill="white"/>
</svg>
