<svg width="1366" height="401" viewBox="0 0 1366 401" fill="none" xmlns="http://www.w3.org/2000/svg">
<path d="M356.413 42.1032C364.7 51.485 375.612 51.6328 387.003 51.5648C396.018 51.508 405.929 47.401 413.821 55.5374C368.513 82.0374 319.184 86.1952 268.236 82.1608C230.637 79.1821 193.037 75.5193 155.213 77.1945C80.8446 72.2834 6.33676 72.0831 -68.1021 69.6259C-75.7496 69.3757 -83.6201 69.9565 -90.7133 65.9701C-93.8967 64.0098 -94.7683 61.3064 -93.328 57.8599L356.413 42.1032Z" fill="#EE8700"/>
<path d="M643.037 94.0265C646.449 94.021 649.859 94.0209 653.266 94.0262C663.136 99.8948 674.658 92.0354 684.539 97.7746L684.492 97.7463C708.759 107.81 729.221 87.5352 752.692 88.9824C758.952 89.3723 765.587 85.7301 771.981 89.754C795.064 102.888 820.149 105.148 845.773 102.11C854.261 101.097 862.456 99.8352 870.881 101.58C885.576 106.481 900.217 109.372 915.909 105.342C924.336 103.18 933.037 104.864 939.009 112.713C930.03 136.633 908.714 143.439 887.143 145.977C873.915 147.541 862.963 151.653 850.928 156.401C825.642 166.373 798.321 167.414 771.099 169.1C771.168 170.217 775.228 168.277 775.619 169.833C780.877 190.57 800.565 194.488 815.025 204.842C826.105 212.779 838.944 223.449 817.472 235.343C815.969 236.173 814.001 237.811 814.204 239.152C820.392 279.232 783.651 272.721 765.713 285.04C774.106 281.783 781.51 281.364 789.113 291.677C803.363 311.01 812.685 309.922 825.697 290.25C828.084 286.647 829.26 282.379 831.477 278.722C841.14 262.763 854.741 257.084 870.13 269.173C885.197 280.999 897.835 277.372 908.988 265.938C923.875 250.664 937.664 241.628 957.114 259.401C965.887 267.425 975.076 261.056 982.494 254.711C996.854 242.425 1009.94 244.153 1028.83 248.258C1056.92 254.376 1075.48 265.915 1087.83 290.624C1090.72 296.41 1096.32 296.869 1103.34 296.044C1131.24 292.751 1147.82 303.458 1159.96 332.758C1168.28 352.809 1164.6 369.846 1143.56 380.522C1139.82 382.421 1135.43 385.43 1138.95 390.524C1142.11 395.09 1147.75 398.03 1152.15 393.686C1159.01 386.912 1169.37 381.62 1165.04 368.261C1161.16 356.302 1169.58 350.714 1179.23 347.76C1190.64 344.259 1194.8 352.621 1197.19 361.274C1202.37 380.096 1219.06 397.816 1202.04 419.086C1198.77 423.176 1201.24 434.536 1206.76 434.16C1227.03 432.78 1224.15 449.46 1229.26 459.853C1231.92 465.266 1233.17 472.594 1237.68 475.643C1263.74 493.234 1259.59 522.408 1266.5 547.35C1265.27 549.623 1263.41 551.494 1261.14 552.739C1220.63 557.821 1180 561.751 1139.2 563.805C1132.46 564.148 1124.75 562.071 1119.61 567.37C1105.53 581.866 1095.6 572.674 1085.55 562.393C1076.58 554.741 1074.23 543.225 1069.29 533.336C1059.21 513.126 1063.29 507.378 1087.33 505.705C1081.77 500.15 1075.84 499.253 1068.75 502.83C1044.33 515.148 1044.29 515.051 1033.95 489.822C1033.89 498.233 1040.54 505.829 1037.81 514.653C1035.58 521.891 1035.89 531.08 1026.35 533.02C1017.54 534.814 1012.04 528.48 1007.25 522.22C1002.47 516.009 1000.11 508.268 1000.63 500.447C1000.98 492.941 1003.07 484.771 994.538 479.061C986.786 482.791 990.948 489.409 991.304 494.578C992.051 505.466 987.971 515.518 977.773 516.385C965.684 517.409 967.906 505.184 967.12 497.094C966.794 493.686 967.213 490.198 965.233 487.13C965.63 483.696 959.81 486.536 963.211 485.959C964.211 485.795 964.543 486.583 964.223 488.33C959.465 514.027 951.345 515.288 925.948 494.294C924.111 492.751 922.386 491.106 920.66 489.461C914.738 483.911 907.007 481.729 899.628 480.106C885.536 476.999 876.152 470.464 876.49 454.032C874.918 470.453 860.08 466.076 851.744 471.387C856.137 473.518 860.211 474.992 863.551 477.752C870.076 483.137 885.123 484.163 877.927 497.218C872.249 507.519 862.044 516.899 848.183 511.916C832.464 506.266 807.53 507.811 818.945 477.366C822.032 469.162 812.247 465.097 805.294 467.272C787.937 472.725 782.511 461.757 776.393 449.504C770.135 436.958 762.538 425.176 745.608 427.977C751.071 431.929 764.195 428.087 763.117 439.054C762.09 449.51 751.233 450.073 742.686 449.717C731.665 449.299 720.957 445.931 711.681 439.965C715.371 450.506 721.502 464.648 708.469 466.97C693.195 469.691 674.591 484.311 661.579 466.617C664.664 474.004 671.002 478.633 683.51 474.539C700.873 468.85 702.145 479.712 700.851 492.336C713.283 476.973 730.773 468.355 751.041 466.648C761.482 465.764 772.151 468.338 774.806 481.528C777.497 494.853 769.76 498.795 758.531 502.852C749.747 506.031 732.068 504.079 733.91 515.496C736.019 528.525 753.865 528.8 764.823 527.094C784.859 523.991 802.072 530.975 820.032 536.424C828.238 538.916 836.102 542.928 845.05 542.049C901.421 536.517 956.753 544.998 1011.94 554.679C1035.55 558.818 1060.1 548.156 1083.12 559.641C1086.55 571.866 1091.29 579.4 1107.36 578.114C1124.89 576.708 1142.55 583.431 1160.61 583.027C1166.6 582.893 1172.85 584.876 1174.68 591.818C1176.45 598.474 1171.72 602.691 1167.95 607.438C1156.26 622.136 1135.14 614.048 1122.69 626.572C1131.35 624.798 1139.81 617.754 1148.85 625.564C1139.98 639.844 1125.69 641.509 1110.8 642.046C1045.86 644.359 980.913 646.713 915.976 649.108C915.305 635.178 926.741 637.893 934.098 637.025C950.375 635.282 966.749 634.617 983.114 635.034C995.269 635.225 1004.33 628.883 1014.04 623.615C1018.59 621.148 1018.31 616.52 1017 612.202C1015.48 607.206 1011.3 604.884 1007.04 607.113C992.008 614.981 987.132 605.182 982.728 594.019C980.078 587.295 977.301 586.693 968.661 586.469C948.933 585.972 928.005 591.656 909.107 581.792C900.223 577.153 894.35 579.926 889.287 587.08C883.932 594.889 876.6 601.138 868.041 605.189C853.178 612.267 839.164 623.778 834.597 594.929C832.895 584.186 822.577 583.019 811.594 585.102C792.695 588.697 773.263 596.217 754.56 583.468C750.744 580.867 745.588 581.064 742.584 584.459C731.485 597.003 726.104 597.504 713.874 582.144C706.138 572.429 683.865 577.552 668.242 579.005C661.433 579.644 653.054 579.613 653.243 574.124C654.313 543.362 623.533 542.4 609.325 526.226C601.352 517.137 586.906 513.909 582.791 499.921C581.486 495.511 577.536 493.174 572.726 493.503C567.855 493.825 562.954 497.615 563.95 501.274C571.713 529.593 548.54 547.084 540.917 569.918C536.152 587.389 518.669 589.868 506.449 598.247C500.179 602.541 493.344 597.868 489.425 591.211C484.898 583.54 484.824 575.112 492.577 570.773C508.017 562.137 514.268 547.721 520.377 532.762C492.566 525.235 492.804 525.282 497.843 496.72C500.117 483.808 494.041 474.515 481.568 471.541C468.419 468.406 454.991 465.107 441.597 472.804C434.348 476.973 426.018 480.516 417.187 475.838C409.683 465.765 406.915 453.867 406.652 441.866C406.313 426.981 410.279 413.872 429.302 414.256C442.35 414.522 450.766 408.003 454.576 396.227C458.711 383.393 470.087 375.904 476.062 364.286C487.007 343.012 500.68 324.665 530.215 338.262C511.225 322.56 500.982 322.317 492.3 338.433C485.971 350.162 479.67 359.431 465.152 356.368C456.996 354.643 443.642 323.914 444.759 314.058C445.925 303.865 465.639 294.416 447.554 283.633C428.006 271.972 408.972 255.632 383.258 267.774C378.584 269.979 373.866 272.086 369.166 274.224C353.768 281.237 345.309 275.425 345.673 259.297C345.942 247.62 344.423 235.045 352.665 223.652C361.953 222.892 366.017 233.245 374.49 234.639C382.977 236.025 390.532 237.542 390.625 225.413C390.711 214.154 397.151 206.472 407.014 205.159C420.902 203.309 430.4 201.385 431.784 183.697C432.544 173.999 442.63 179.258 448.139 183.154C461.04 192.261 458.835 205.185 456.72 218.3C453.91 235.694 441.275 236.769 427.591 236.654C445.29 259.881 447.841 260.08 458.051 236.31C462.178 226.706 468.46 226.014 476.619 227.587C488.665 229.899 499.997 234.67 509.247 242.447C523.6 254.518 532.77 272.567 550.74 275.738C549.101 271.988 546.981 263.219 536.991 263.943C526.31 264.718 526.029 258.006 525.833 250.931C525.861 248.369 525.293 245.836 524.174 243.532C523.054 241.227 521.413 239.215 519.381 237.654C511.964 231.513 494.696 222.19 502.38 217.161C514.603 209.177 514.371 183.779 537.28 190.933C545.219 193.419 544.526 186.231 544.943 181.262C545.526 174.448 543.64 167.546 545.912 159.56C544.872 164.136 546.244 159.062 546.173 159.406C541.49 182.075 535.424 190.217 525.888 161.503C523.734 155.013 525.63 147.826 526.731 141.001C529.272 125.245 519.191 118.828 506.539 116.172C490.334 112.763 495.113 126.774 492.618 134.686C489.869 143.397 489.043 156.144 475.913 152.66C465.504 149.894 459.543 140.164 461.123 128.319C466.839 85.3692 492.982 75.5503 534.245 84.577C568.974 92.1733 606.287 96.5523 643.037 94.0265Z" fill="#EE8700"/>
<path d="M643.037 94.0261C632.097 104.783 618.339 96.4218 606.187 97.8687C598.876 98.742 590.595 101.916 584.789 100.911C576.56 99.4988 567.761 94.2059 559.941 88.6055C553.375 83.9074 548.641 88.4683 540.126 104.768C527.484 85.4316 515.194 79.6358 497.975 83.5868C490.632 85.2764 485.49 87.8631 482.855 95.4722C480.089 103.49 477.548 112.269 472.357 118.635C461.104 132.441 466.928 141.064 480.056 149.973C485.632 140.242 490.03 131.398 486.005 119.33C482.696 109.431 488.136 104.724 498.51 107.148C509.192 109.646 520.338 110.192 528.608 119.712C534.513 126.52 540.008 130.775 533.506 141.261C527.609 150.77 531.313 162.143 534.045 176.208C544.464 167.092 540.739 155.083 548.929 149.518C553.399 146.483 558.187 142.286 562.001 148.078C566.047 154.211 558.513 153.714 555.518 155.419C548.409 159.46 546.41 165.205 548.938 172.816C550.28 176.87 552.032 180.902 552.612 185.079C553.554 191.985 554.048 199.758 546.579 203.302C538.893 206.954 537.404 197.493 532.523 194.899C531.095 194.134 529.331 194.006 527.325 193.49C518.475 198.491 531.254 207.355 523.612 213.802C517.297 219.134 510.347 214.336 503.804 218.182C512.488 228.68 524.855 232.959 535.288 238.793C536.714 246.664 526.488 250.876 531.119 258.497C545.434 248.621 545.343 248.654 551.005 262.439C555.551 273.506 559.555 284.515 553.735 296.212C545.939 296.363 546.434 291.288 547.382 287.485C549.252 279.994 546.72 274.683 539.458 274.579C526.999 274.406 523.474 266.358 516.996 257.567C505.074 241.404 486.051 234.287 464.79 231.338C461.995 242.007 465.226 253.592 458.92 264.034C434.976 264.272 423.053 248.519 412.75 228.995C425.606 226.595 441.714 240.098 449.663 222.622C457.993 204.31 453.776 194.831 436.38 183.224C427.865 194.764 442.62 205.671 436.911 219.679C426.913 209.968 416.742 203.112 403.538 211.861C396.98 216.21 391.933 220.211 398.094 228.007C404.86 236.572 399.47 238.735 392.553 242.905C383.282 248.499 376.807 237.562 368.582 240.858C356.145 245.847 359.871 231.544 354.295 226.755C350.996 239.33 354.264 250.427 351.073 261.514C348.385 270.869 354.542 273.136 364.798 269.373C378.426 264.371 389.209 252.227 406.779 256.782C428.146 262.335 445.395 274.683 463.55 285.715C464.716 286.367 465.691 287.313 466.377 288.46C467.063 289.606 467.436 290.912 467.459 292.248C467.481 293.583 467.153 294.902 466.507 296.071C465.861 297.24 464.919 298.219 463.776 298.91C442.995 312.479 446.794 325.903 462.669 340.145C463.731 341.09 464.037 343.333 464.003 344.957C463.663 358.724 471.264 352.349 477.149 350.186C485.97 346.952 485.64 337.968 488.916 331.269C495.34 318.112 503.401 314.501 522.725 318.896C533.815 321.417 537.157 332.572 540.977 341.631C542.382 344.983 537.988 350.228 532.706 347.709C521.235 342.247 508.12 335.267 497.536 343.084C488.694 349.616 484.309 362.367 478.573 372.819C471.257 386.16 461.37 398.539 453.606 412.102C449.68 418.965 442.704 422.232 433.926 422.122C414.945 421.881 408.79 428.989 412.738 447.13C414.735 456.306 418.81 465.021 418.16 474.723C433.075 489.121 408.267 506.377 414.709 510.769C430.797 521.744 428.455 534.675 427.147 548.627C426.056 560.31 421.927 570.515 406.995 569.531C386.315 568.169 393.41 580.684 396.281 591.079C397.21 598.914 397.826 606.645 389.577 611.451C382.399 611.368 378.332 606.133 373.674 601.879C366.081 595.786 364.176 568.815 347.703 595.142C344.293 600.593 337.364 601.773 331.531 598.526C324.253 594.48 324.378 587.597 326.88 580.555C327.448 578.951 328.61 577.547 329.111 575.953C331.467 568.43 346.35 560.216 332.752 553.578C320.47 547.588 316.751 562.494 311.485 570.675C307.462 576.932 308.384 583.693 310.533 590.48C312.64 597.147 314.423 604.426 307.416 609.093C300.829 613.49 294.149 610.121 288.202 606.553C280.928 602.193 275.064 595.467 266.238 593.75C244.18 578.697 219.961 566.765 200.214 548.326C195.421 542.85 190.585 537.398 186.78 531.157C167.787 511.503 143.253 502.896 117.678 496.351C99.2718 489.905 89.4929 471.414 70.0479 464.661C55.7767 459.693 61.5067 443.269 69.3377 429.827C49.1659 431.021 32.5479 428.415 17.3075 440.721C0.272213 454.471 1.54839 428.516 -9.31298 426.52C-11.2517 436.19 -1.34969 450.773 -16.1548 454.719C-27.3755 457.713 -27.888 442.198 -35.311 436.852C-25.7073 448.801 -19.4463 462.062 -19.7747 477.755C-19.8804 483.303 -21.3089 488.524 -27.1009 489.932C-34.0482 491.622 -36.1237 485.427 -36.9253 480.733C-39.8184 463.819 -51.4442 453.935 -64.3317 444.985C-77.4932 435.835 -78.6278 415.41 -99.0466 411.493C-105.71 410.218 -110.51 394.507 -99.2358 385.453C-97.104 384.548 -95.8107 381.037 -92.6113 383.255C-97.169 380.323 -98.249 386.24 -101.484 386.742C-109.588 390.658 -114.858 396.959 -118.492 405.19C-121.61 412.276 -126.627 416.449 -134.571 410.566C-137.845 388.876 -135.118 369.747 -112.775 358.919C-65.5533 352.245 -27.3484 377.091 9.9945 396.461C21.0231 391.041 3.02668 369.104 26.165 375.529C28.4568 376.165 31.4079 377.577 28.9742 374.204C19.9447 361.688 31.6106 341.424 11.3958 332.452C0.588442 327.659 5.61249 313.896 3.94236 304.053C3.35882 300.506 3.06251 296.918 3.0563 293.323C2.99506 290.918 3.13245 288.53 3.28476 286.14C0.732035 263.925 3.00597 242.753 16.6376 224.012C20.3843 219.212 24.6028 214.831 28.7024 210.338C35.7689 203.769 41.4134 194.896 52.7688 195.091C56.0885 195.978 59.1427 197.659 61.6683 199.989C76.8272 212.992 80.4976 204.386 80.8138 189.745C80.8368 183.729 80.4022 177.72 79.5139 171.77C67.9821 150.437 72.9513 124.003 57.9539 103.561C53.2426 97.1306 58.5305 93.0685 64.5216 89.9489C82.8276 80.4385 113.54 90.414 123.233 110.127C127.152 118.085 129.963 127.446 140.736 124.731C151.456 122.033 154.112 112.198 153.333 102.223C152.476 91.2404 148.944 80.2366 155.525 69.8078C194.789 67.937 233.714 72.2396 272.796 74.9683C301.686 76.9718 330.932 73.9447 360.01 73.055C362.513 72.9823 366.784 72.7176 367.213 71.4853C376.049 46.1441 398.043 59.9418 413.821 55.5372C415.476 55.6847 417.14 55.68 418.794 55.523C423.203 60.0756 430.065 55.6992 434.581 59.859C500.586 67.3177 564.968 85.4817 631.484 89.5107C635.913 89.7737 639.911 90.6548 643.037 94.0261Z" fill="#EE8700"/>
<path d="M1264.4 548.578C1263.97 544.214 1263.05 539.867 1259.55 536.982C1250.6 529.602 1246.46 521.781 1253.54 510.414C1258.54 502.387 1256.73 498.513 1246.23 494.097C1229.5 487.052 1226.07 468.231 1219.88 452.667C1218.13 448.25 1221.1 442.038 1215.08 439.385C1206.9 438.087 1211.04 451.24 1202.32 449.405C1195.29 443.35 1200.81 432.725 1194.31 426.16C1186.9 418.681 1187.57 413.57 1198.56 409.842C1206.49 407.143 1207.68 400.565 1203.35 393.055C1196.04 380.364 1192.11 366.298 1188.17 352.346C1164.64 358.533 1164.64 358.533 1179.4 382.029C1172.69 387.884 1157.93 386.505 1159.54 401.247C1159.9 404.535 1155.47 405.823 1151.55 405.084C1137.97 402.521 1126.92 397.445 1126.23 381.294C1131.02 375.155 1139.05 377.478 1144.88 373.42C1157.64 364.571 1162.67 347.458 1154.41 334.091C1148.56 324.583 1142.04 315.504 1134.9 306.923C1127.31 297.859 1115.07 296.515 1104.05 304.432C1098.55 308.379 1095.69 308.288 1090.98 304.447C1082.7 297.685 1078.52 288.227 1072.94 279.574C1066.09 268.938 1061.91 253.936 1042.44 261.686C1038.06 263.424 1024.95 259.382 1021.58 255.215C1007.68 237.941 998.56 253.463 987.987 258.193C985.04 259.514 983.113 262.994 980.479 265.188C970.807 273.242 962.355 275.282 951.513 264.931C934.683 248.879 933.308 249.202 917.981 266.944C910.735 275.331 901.761 278.738 892.433 283.155C882.573 287.812 876.806 284.708 869.868 277.967C854.083 262.633 843.573 265.241 835.859 287.027C831.832 298.394 821.767 303.918 815.048 312.538C809.779 319.303 784.863 310.732 783.574 299.612C781.249 279.541 772.503 287.943 763.378 291.843C760.294 293.151 757.223 295.501 753.701 293.438C750.599 291.627 748.305 288.768 748.771 285.088C749.057 282.838 751.467 278.802 751.922 278.93C769.231 284.074 780.259 270.595 794.019 265.307C798.626 263.532 804.154 264.152 809.308 263.671C813.265 254.211 793.758 250.035 804.656 239.143C810.744 233.05 810.365 218.828 829.176 229.442C804.44 199.691 802.903 198.976 773.566 200.983C770.335 192.01 779.124 185.267 778.803 177.418C774.133 169.098 762.4 182.928 759.776 170.629C758.774 165.95 753.919 161.063 758.974 156.316C764.703 150.921 767.928 155.796 771.114 159.992C775.401 165.63 780.295 165.298 787.01 163.73C802.487 160.118 817.17 151.333 834.512 157.748C842.474 160.69 847.672 150.985 854.182 147.241C861.566 143 868.169 134.733 877.178 138.85C891.66 145.463 902.023 137.568 913.021 131.281C921.817 126.25 930.15 120.399 938.686 114.913C943.101 111.164 1009.61 81.5831 1015.51 80.7445C1044.48 89.3865 1073.01 82.0044 1101.66 78.4262C1106.95 77.7689 1112.13 76.6433 1115.39 72.3441C1134.29 47.4472 1162.62 46.984 1189.62 44.3437C1210.06 42.3483 1230.74 42.8121 1251.31 42.1821C1254.54 44.6967 1259.29 43.6242 1262.24 46.8005L1262.17 46.773C1286.83 60.174 1313.1 64.8741 1341.06 62.7222C1353.53 61.7672 1366.73 59.6063 1378.04 68.1972C1386.23 79.6538 1385.67 92.2552 1382.86 105.119C1374.57 121.677 1358.97 113.757 1346.33 115.607C1351.8 158.925 1345.21 162.53 1287.46 145.148C1309.08 173.659 1283.49 186.963 1271.14 203.473C1263.15 214.149 1251.06 211.533 1241.7 202.395C1234.31 195.167 1227.69 187.196 1216.59 185.331C1209.2 184.089 1202.02 174.524 1195.25 180.024C1187.08 186.662 1190.28 198.102 1192.75 206.845C1197.12 222.259 1201.16 236.672 1221.58 242.043C1252.5 250.168 1266.94 286.349 1251.55 314.603C1241.29 333.416 1247.7 335.415 1265.14 337.09C1291.01 339.572 1319.85 385.34 1313.39 409.093C1311.14 417.39 1321.1 419.302 1325.6 423.829C1354.62 453.041 1388.32 477.176 1416.61 507.289C1417.78 509.678 1418.63 512.212 1419.14 514.824C1422.85 537.999 1410.78 549.1 1389.5 550.44C1363.88 552.065 1338.42 555.51 1313.29 560.75C1295.57 564.417 1279.99 555.572 1264.4 548.578Z" fill="#EE8700"/>
<path d="M1412.88 507.23C1402 496.909 1384.77 493.63 1379.51 476.907C1378.92 475.039 1375.55 472.744 1373.55 472.82C1356.9 473.434 1348.16 467.108 1345.99 449.246C1345.09 441.837 1335.76 434.517 1327.35 432.869C1314.23 430.297 1312.59 412.1 1297.53 412.709C1295.93 412.774 1296.26 406.38 1299.59 404.396C1303.94 401.814 1309.55 408.915 1314.73 401.574C1307.83 394.458 1296.45 388.87 1301.65 374.872C1303.45 370.034 1297.04 366.184 1292.71 363.483C1287.65 360.317 1281.11 358.488 1279.29 352.179C1276.01 340.778 1268.53 339.54 1259.42 343.606C1247.27 349.019 1242.07 340.893 1236.8 332.921C1233.78 328.35 1233.95 325.511 1239.37 320.721C1253.17 308.535 1257.41 291.954 1248.59 275.218C1240.34 259.552 1231.7 242.071 1208.35 246.903C1204.65 247.672 1200.89 247.271 1199.47 243.825C1190.7 222.685 1180.52 201.823 1184.46 177.736C1186.02 168.268 1192.68 166.884 1199.71 169.121C1210.36 172.502 1217.41 186.07 1232.03 179.991C1233.23 179.492 1238.41 190.994 1243.03 195.66C1248.02 200.695 1253.03 210.07 1261.94 203.833C1267.43 199.993 1279.36 197.807 1270.96 184.957C1267.37 179.454 1274.71 176.097 1280.11 177.164C1296.52 180.412 1293.14 171.986 1288.75 163.085C1284.61 154.706 1279.79 146.627 1279.59 136.899C1284.82 131.715 1290 134.615 1293.07 138.339C1301.57 148.65 1316.19 141.321 1325.98 151.725C1331.71 157.808 1342.01 147.537 1343.15 135.944C1344.23 124.977 1334.56 117.364 1335.11 104.138C1349.07 109.636 1364.18 111.567 1379.07 109.758C1389.62 115.824 1398.02 107.046 1407.35 105.606C1409.93 105.416 1415.43 108.971 1412.62 101.401C1415.01 88.2699 1426.09 81.5535 1433.71 72.3142C1448.77 79.9438 1437.88 91.7189 1437.87 99.5177C1466.23 118.052 1492.88 134.346 1500.09 170.514C1505.11 195.692 1520.71 217.331 1532.4 240.143C1534.72 244.663 1538.75 248.306 1539.2 253.775C1532.15 273.275 1533.48 295.62 1519.23 312.676C1511.21 311.419 1507.75 316.612 1504.98 322.757C1504.17 323.537 1503.16 324.06 1502.05 324.258C1500.95 324.457 1499.82 324.323 1498.79 323.874C1494.72 322.059 1488.81 316.882 1488.82 326.484C1488.84 336.514 1491.64 346.523 1489.12 356.649C1485.95 367.125 1488.39 379.874 1476.91 386.955C1462.22 387.804 1467.87 369.975 1456.69 365.69C1444.15 384.972 1432.62 404.203 1437.13 429.132C1438.8 438.32 1438.41 447.854 1438.23 457.251C1438.12 462.403 1437.26 471.611 1435.02 471.467C1404.44 469.553 1425.18 498.628 1412.88 507.23Z" fill="#EE8700"/>
<path d="M-170.403 221.039C-171.681 211.511 -169.59 202.489 -166.592 193.518C-164.985 188.725 -161.577 181.895 -163.505 179.031C-170.768 168.227 -171.425 159.91 -160.01 151.826C-157.446 150.007 -157.516 145.402 -159.422 142.303C-161.344 139.179 -165.013 137.48 -168.196 139.243C-186.373 149.324 -192.126 135.116 -198.845 123.561C-200.936 119.964 -201.593 115.556 -205.649 113.259C-201.495 106.381 -201.254 98.8172 -200.693 91.0068C-199.391 72.9641 -196.807 71.4952 -177.917 74.8313C-175.38 75.2836 -172.85 75.7541 -170.32 76.2256C-147.125 87.6297 -146.887 92.7005 -168.214 118.528C-150.769 107.773 -129.582 122.735 -111.98 108.637C-107.653 105.173 -101.211 111.861 -97.3404 116.487C-90.7824 124.323 -83.7524 131.503 -73.5235 136.316C-71.2706 128.217 -69.9864 119.451 -60.2339 116.946C-30.862 113.358 -25.1934 117.562 -20.8742 146.062C-28.8564 156.471 -48.1321 156.491 -46.9443 175.833C-46.3367 185.781 -41.384 184.313 -35.2233 183.008C-29.4422 180.833 -25.1488 176.219 -19.69 173.781C-12.5738 170.599 -4.22769 161.442 1.82184 173.98C6.66635 184.013 1.86291 192.539 -7.64761 197.61C-15.9762 202.045 -25.8501 202.825 -33.9165 208.033C-53.8126 214.267 -74.8002 213.014 -89.4341 199.665C-108.017 182.712 -122.755 193.803 -129.95 205.571C-140.976 223.58 -154.779 221.774 -170.403 221.039Z" fill="#EE8700"/>
<path d="M1015.51 80.7408C1013.88 81.133 1012.27 81.6156 1010.61 81.8948C996.957 84.1735 1001.05 109.793 979.306 103.821C965.549 100.046 952.768 112.634 938.686 114.91C929.391 110.034 919.352 107.856 909.846 112.592C893.019 120.983 881.313 114.262 870.877 101.582C884.876 94.6627 900.387 93.1371 915.351 90.6024C926.564 88.7012 937.425 88.9078 944.038 77.4796C946.321 73.5307 951.335 72.0758 955.433 72.9524C975.266 77.2007 996.068 73.7913 1015.51 80.7408Z" fill="#EE8700"/>
<path d="M1377.26 68.7447C1349.97 67.408 1322.82 73.6987 1295.24 67.9703C1280.52 64.9063 1269.78 59.2132 1262.17 46.7677C1292.18 39.1059 1322.27 36.3152 1352.91 43.4667C1360.58 45.2623 1366.99 54.8931 1376.31 47.8181C1382.02 52.9113 1382.18 59.067 1379.78 65.7397C1378.95 66.7431 1378.1 67.7398 1377.26 68.7447Z" fill="#EE8700"/>
<path d="M771.982 89.7518C752.188 101.466 727.639 92.3186 707.432 104.892C701.32 108.693 690.953 104.296 684.494 97.745C696.341 97.8781 707.124 94.3326 718.463 90.9266C735.506 85.7975 753.94 73.499 771.982 89.7518Z" fill="#EE8700"/>
<path d="M684.54 97.7744C674.075 96.8997 662.805 102.637 653.267 94.0259C663.763 94.7014 674.988 89.324 684.54 97.7744Z" fill="#EE8700"/>
<path d="M434.582 59.8594C428.842 60.1446 422.941 61.0365 418.795 55.5234C424.482 55.4152 430.518 54.0535 434.582 59.8594Z" fill="#EE8700"/>
<path d="M1262.24 46.7954C1257.95 46.8168 1254.13 45.7085 1251.33 42.1767C1255.84 41.6495 1259.82 42.3783 1262.24 46.7954Z" fill="#EE8700"/>
<path d="M-59.9381 123.933C-63.3406 121.6 -66.743 119.27 -70.1302 116.917C-76.4142 112.561 -89.0909 122.243 -90.604 108.833C-91.884 97.5071 -93.1318 85.216 -82.6487 76.3298C-80.7622 74.7323 -78.916 73.0983 -75.2054 69.8676C-83.0978 65.6811 -93.1176 71.2033 -98.275 63.5472C-96.5175 63.2723 -94.7578 62.9949 -92.9959 62.7151C-10.0831 62.5449 72.7869 64.0085 155.532 69.8115C159.999 80.7976 157.629 92.7233 160.891 104.293C164.291 116.344 154.264 126.871 145.469 134.551C138.686 140.49 117.15 127.949 117.101 116.131C117.049 104.198 112.515 101.997 103.2 101.302C101.49 101.027 99.9321 100.156 98.8029 98.8431C90.2134 89.0908 81.1395 87.2682 70.3468 95.7392C68.3162 97.3337 63.7623 93.8834 61.1532 98.0947C61.0456 106.1 68.1878 103.004 72.2442 104.447C77.0565 106.167 80.6953 110.876 78.0957 113.844C64.2555 129.66 78.5976 142.303 81.8161 156.113C82.9709 161.039 84.9802 165.773 86.6033 170.592C69.9196 173.735 63.8847 161.243 56.7321 150.366C51.7934 142.87 45.2651 137.394 36.5784 134.69C19.3998 130.013 10.0443 142.451 -0.767738 151.741C-9.05596 156.898 -17.0277 160.012 -22.5444 148.209C-29.5118 138.251 -27.5211 121.155 -45.9039 120.139C-51.4647 119.836 -55.4034 122.213 -59.9381 123.933Z" fill="#EE8700"/>
<path d="M1083.62 560.053C1039.63 565.303 996.539 557.644 953.142 552.188C916.683 547.616 880.137 544.494 842.929 548.09C827.324 549.604 810.169 541.271 794.687 535.02C788.562 532.554 784.332 531.382 778.24 533.365C762.554 538.461 747.654 532.091 732.838 528.535C726.371 526.979 720.477 521.146 720.671 513.409C720.884 504.947 730.127 499.627 734.703 501.325C747.458 506.058 753.227 485.947 766.296 494.417C769.607 496.556 770.623 490.747 770.493 487.485C770.265 481.422 770.275 474.948 762.258 473.523C742.386 470.007 726.019 477.393 711.376 490.089C704.483 496.066 700.484 506.144 687.514 505.967C685.582 497.985 693.505 494.783 695.904 489.352C697.379 486.01 697.976 482.631 695.963 479.601C693.382 475.724 690.232 477.982 686.985 479.2C667.634 486.443 659.001 479.358 657.623 455.24C664.549 457.724 665.061 470.159 671.587 468.597C683.414 465.761 695.673 466.748 707.063 463.18C713.157 461.266 711.859 455.281 710.142 449.969C707.511 441.813 698.864 436.975 697.654 424.695C718.143 435.172 736.161 452.074 761.892 439.367C754.358 431.497 742.602 436.128 736.621 428.691C733.204 424.446 724.486 421.439 730.488 414.526C734.851 409.499 739.719 413.662 742.891 418.311C744.874 421.227 747.255 423.976 750.985 423.808C771.106 422.913 779.443 436.101 784.81 452.329C787.884 461.605 790.313 469.524 802.105 460.649C806.669 457.215 812.088 460.825 816.992 461.674C827.996 463.589 830.548 470.574 826.717 480.338C825.172 484.284 822.286 487.752 821.016 491.756C818.965 498.229 823.86 501.564 828.695 502.903C835.54 504.804 831.807 489.352 840.375 494.352C844.185 496.579 845.099 503.296 848.42 506.987C851.854 510.797 856.553 509.992 859.184 505.552C863.204 498.778 875.278 502.125 875.977 491.826C876.067 490.482 873.579 487.744 873.512 487.784C862.53 494.086 857.056 468.932 844.644 482.71C843.091 484.44 839.393 482.81 838.863 480.072C838.434 477.818 838.731 474.136 840.178 473.042C845.632 468.888 851.46 465.247 857.586 462.167C863.335 459.315 876.852 461.865 864.77 448.961C862.642 446.69 866.121 442.546 869.372 440.97C873.184 439.115 875.819 441.307 877.92 444.326C878.409 445.032 879.171 445.767 879.224 446.527C881.14 471.021 899.827 474.838 918.602 478.555C923.779 479.585 925.002 483.624 925.839 487.973L925.839 487.981C930.597 491.585 935.625 494.889 940.052 498.862C945.549 503.796 950.312 508.244 956.951 500.128C962.815 492.961 961.072 487.752 954.108 483.099C951.285 481.211 948.218 479.543 949.135 474.849C975.645 474.789 971.67 496.139 974.228 512.599C984.264 508.204 988.821 503.055 984.345 492.26C981.182 484.31 981.287 475.432 984.637 467.558C1008.35 474.077 1011.62 476.43 1007.32 496.489C1003.57 513.985 1013 521.325 1023.76 530.688C1035.79 507.54 1035.79 507.54 1020.67 490.706C1023.45 482.679 1032.67 483.468 1037.62 477.751C1041.05 489.333 1044.19 499.882 1047.31 510.428C1061.06 508.773 1064.48 484.083 1083.36 494.343C1093.78 500.003 1092.9 509.249 1091.06 520.403C1088.79 517.181 1087.33 515.225 1086 513.192C1082.22 507.46 1077.24 508.351 1072.73 511.547C1067.95 514.945 1066.46 519.932 1070.64 524.805C1079.39 535.009 1084.64 546.34 1083.62 560.058L1083.62 560.053Z" fill="#EE8700"/>
<path d="M-170.403 221.04C-162.786 217.598 -157.266 205.592 -146.366 215.385C-144.456 217.101 -140.969 216.605 -141.272 213.394C-143.665 188.565 -114.549 195.527 -107.537 179.927C-106.35 177.285 -100.304 178.561 -98.7137 181.552C-84.8376 207.616 -59.3548 203.479 -36.4027 205.987C-24.1703 214.912 -14.2962 230.468 4.77531 216.799C10.0726 213.004 18.1952 216.793 21.2438 224.699C9.61758 244.011 7.55821 265.369 7.88234 287.24C6.59812 288.412 6.17455 289.569 6.62592 290.718C7.07728 291.868 7.51662 292.447 7.9502 292.431C8.1013 295.869 8.24974 299.306 8.3955 302.743C11.7216 322.451 -7.4548 327.104 -17.3185 332.486C-28.0272 338.33 -29.0534 320.575 -35.1324 311.192C-37.8068 317.249 -43.6406 320.292 -49.2894 317.765C-76.5889 305.507 -83.831 327.477 -91.4775 344.072C-95.6678 353.167 -99.1972 360.23 -108.512 363.724C-121.378 364.533 -124.46 374.823 -127.334 384.323C-129.968 393.037 -130.894 402.261 -132.575 411.254C-112.674 432.332 -92.2749 453.064 -83.7851 482.012C-75.5427 498.357 -64.0875 511.65 -45.7124 516.132C-23.1502 521.643 -11.1229 535.392 -8.185 558.153C-7.55063 563.012 -4.71696 567.581 -2.89948 572.294C-4.22385 584.054 -10.9932 581.488 -18.082 578.058C-19.9525 566.836 -23.0717 558.028 -37.9703 562.563C-42.3248 563.889 -48.1542 559.719 -52.9258 560.474C-63.5908 562.142 -75.8278 562.648 -75.2394 578.986C-74.6016 596.534 -90.6304 597.073 -100.293 603.847C-102.398 602.048 -104.779 600.604 -104.591 600.091C-97.593 580.911 -109.109 572.435 -123.876 565.077C-131.596 561.228 -138.457 555.386 -142.059 547.359C-143.885 543.287 -146.412 537.322 -139.55 534.187C-136.431 532.767 -128.9 535.162 -132.668 527.929C-134.677 524.062 -142.935 524.42 -143.985 527.084C-147.328 535.579 -169.451 532.165 -158.845 550.103C-158.368 550.908 -171.32 559.664 -178.71 565.239C-189.571 552.147 -182.931 536.941 -184.833 522.217C-199.257 524.618 -197.244 534.885 -197.229 543.786C-197.211 558.584 -205.511 548.912 -210.674 548.484C-211.097 541.636 -210.499 534.594 -213.888 528.269C-222.329 512.558 -210.635 502.206 -203.385 491.206C-199.206 484.858 -191.7 484.506 -184.848 488.142C-182.637 489.314 -181.155 491.813 -178.999 493.123C-154.913 507.783 -141.736 501.536 -141.323 473.547C-141.107 458.825 -134.547 444.993 -137.131 430.155C-138.133 424.372 -135.742 415.872 -141.808 413.685C-162.553 406.218 -161.296 382.123 -176.205 370.542C-180.284 367.373 -179.134 363.265 -176.428 359.202C-167.188 345.314 -157.684 331.767 -154.703 314.511C-153.206 305.856 -138.562 305.438 -132.208 313.585C-129.871 316.58 -131.445 321.876 -127.481 324.577C-111.661 308.098 -111.669 308.098 -124.024 293.892C-127.127 290.33 -126.507 285.852 -126.99 281.642C-117.509 279.437 -104.713 286.563 -100.438 269.974C-98.5075 262.465 -91.081 263.144 -86.7455 269.669C-79.2914 280.901 -73.9139 273.972 -69.4685 267.586C-62.5952 257.703 -71.9727 255.465 -77.8569 254.468C-90.3335 252.362 -87.4355 239.983 -94.3445 230.605C-100.044 257.073 -116.14 271.75 -137.216 281.91C-142.777 278.617 -145.861 271.679 -153.897 271.87C-160.03 272.017 -164.48 267.602 -160.203 262.304C-149.861 249.459 -156.16 240.975 -165.774 232.424C-169.079 229.478 -169.992 225.298 -170.403 221.04Z" fill="#EE8700"/>
<path d="M-83.7802 482.011C-84.5394 481.638 -85.6493 481.477 -86.0209 480.864C-100.529 456.985 -122.002 437.76 -132.57 411.253C-128.313 410.365 -123.114 408.767 -123.544 404.091C-125.499 382.975 -111.274 383.987 -97.4324 384.082L-97.4327 384.074C-104.277 394.809 -98.2041 403.567 -93.3821 412.53C-84.5969 414.363 -79.3358 406.281 -71.6949 405.457C-70.9592 406.672 -69.331 408.581 -69.6373 408.972C-78.6821 420.598 -74.5664 429.586 -64.2381 437.465C-62.8683 438.506 -61.7447 439.944 -60.269 440.754C-42.2397 450.579 -29.8774 464.327 -29.5556 486.616C-18.9784 458.317 -38.0433 441.742 -55.4801 423.275C-40.3747 424.103 -40.3747 424.103 -16.3347 451.925C-7.22156 438.339 -22.0065 427.645 -19.3218 413.629C-6.88254 420.208 10.3341 419.46 7.08865 443.991C29.4301 414.511 56.0665 423.715 81.202 425.309C84.6473 435.828 76.2673 436.426 72.065 439.3C64.486 444.486 65.1312 450.083 68.9154 457.003C72.7002 463.938 76.3603 465.144 82.752 459.329C87.9334 454.624 93.7947 457.792 93.5481 463.802C93.0071 477.05 97.541 482.786 111.245 482.186C120.599 481.775 117.55 490.427 118.82 495.706C127.81 505.33 129.991 517.151 129.815 529.754C128.662 535.521 125.997 540.09 120.024 542.016C111.97 546.038 108.307 543.683 111.154 534.947C113.196 528.675 114.732 522.309 107.92 519.387C100.529 516.218 95.093 502.586 91.387 506.15C82.5892 514.607 70.2584 503.273 63.4658 513.975C61.8641 516.507 56.153 518.511 55.6645 513.989C53.7604 496.585 43.4081 503.893 35.4354 506.808C27.8777 509.579 22.3025 507.81 16.6423 502.989C14.1227 500.845 9.50521 497.321 8.23142 498.135C-9.81554 509.758 -4.06745 493.593 -5.85172 486.374C-6.45527 483.935 -6.90706 481.461 -7.73688 477.56C-9.57193 480.825 -10.8964 482.819 -11.864 484.978C-16.0116 494.209 -22.1584 501.79 -33.0625 500.115C-44.4796 498.36 -46.5948 488.205 -47.3716 478.651C-48.2958 467.259 -53.1412 459.828 -64.8206 456.696C-65.3277 481.106 -65.6485 481.513 -83.7802 482.011Z" fill="#EE8700"/>
<path d="M-108.503 363.724C-105.406 359.746 -99.0578 355.076 -99.7244 351.892C-104.241 330.566 -84.5038 323.834 -76.0949 310.5C-70.3147 301.334 -62.0361 300.671 -54.9177 308.658C-44.5011 320.342 -40.083 311.208 -35.0147 303.277C-27.2025 311.053 -24.9511 321.386 -18.4984 331.67C-15.9738 322.221 -16.5402 311.251 -2.21828 314.839C5.31967 316.73 5.32048 307.332 8.40151 302.745C9.71456 304.794 12.2403 306.884 12.158 308.874C11.2672 330.61 11.1553 330.699 31.5529 329.87C35.2264 329.719 38.5816 329.418 39.4755 333.835C40.2118 337.465 39.2796 341.518 35.0491 341.415C22.6471 341.127 23.7887 348.329 29.3824 353.823C40.0776 364.323 34.057 374.223 30.7517 384.658C24.7041 385.936 27.17 374.581 20.0792 377.43C19.4588 378.852 17.9519 380.635 18.3543 381.671C20.8235 388.028 24.037 394.1 26.2883 400.518C26.9742 402.481 26.0509 405.705 24.7203 407.496C24.318 407.996 23.8166 408.407 23.2478 408.703C22.6789 409 22.0548 409.176 21.4148 409.22C20.7748 409.263 20.1326 409.174 19.5286 408.958C18.9246 408.742 18.3719 408.403 17.9052 407.963C5.23244 394.949 -16.2045 399.143 -28.1279 382.508C-35.2392 372.581 -51.2712 373.227 -63.0137 368.863C-76.9045 363.706 -93.2357 365.146 -108.503 363.724Z" fill="#EE8700"/>
<path d="M21.2499 224.699C13.3809 220.527 5.96293 219.004 -2.61102 224.286C-6.9571 226.967 -9.21191 235.866 -17.0342 231.083C-23.4319 227.164 -30.5429 223.985 -31.945 215.055C-32.4376 211.872 -34.8579 208.996 -36.3986 205.988C-35.3379 193.209 -25.2906 195.668 -17.3287 194.871C-4.48661 193.591 0.478448 186.851 -2.52225 172.947C-16.5619 174.162 -23.3422 189.64 -36.9902 190.416C-39.0124 160.304 -38.3504 159.412 -11.3826 155.695C-6.6044 155.04 -3.84828 152.057 -2.29375 147.723C14.8621 126.368 19.0901 124.627 38.6251 130.866C68.2549 153.568 69.1323 170.559 39.5751 189.386C28.2592 196.599 33.7705 205.88 31.3944 214.144C29.4021 218.774 25.7976 222.525 21.2499 224.699Z" fill="#EE8700"/>
<path d="M60.0382 145.579C66.5777 156.37 74.7915 165.389 86.5965 170.596C86.9194 180.021 87.2369 189.445 87.549 198.869C87.7784 206.074 86.6674 212.845 79.053 215.938C71.2287 219.121 66.0487 214.101 61.2091 209.091C57.6923 205.436 54.5212 201.458 51.1961 197.621C52.6239 180.02 59.3079 163.304 60.0382 145.579Z" fill="#EE8700"/>
<path d="M60.0382 145.579C61.426 163.664 62.0169 181.617 51.1992 197.625C44.5903 203.124 37.9871 208.631 31.3894 214.146C30.1824 212.954 28.1892 211.935 27.8815 210.545C26.0864 202.36 24.6775 194.092 22.8126 184.116C35.3314 184.287 48.0415 186.633 53.0412 171.519C57.725 157.379 54.3605 146.367 43.0402 137.154C41.1273 135.599 40.0685 132.985 38.619 130.866C49.3175 130.585 54.8716 137.801 60.0382 145.579Z" fill="#EE8700"/>
<path d="M469.807 161.527C474.764 173.204 478.805 184.426 492.123 174.363C495.284 171.975 498.582 174.152 499.878 177.892C501.103 181.429 499.767 184.705 497.552 187.342C493.151 192.583 487.467 193.397 481.453 190.656C475.006 187.706 465.377 188.759 464.903 177.915C464.708 173.666 464.183 169.439 469.807 161.527Z" fill="#EE8700"/>
<path d="M7.9551 292.431C4.41516 290.742 4.41559 289.013 7.88723 287.239C7.90975 288.966 7.93259 290.703 7.9551 292.431Z" fill="#EE8700"/>
<path d="M-2.2928 147.724C2.50399 157.251 -5.53121 158.325 -10.6449 158.024C-25.0542 157.166 -32.5027 161.083 -30.5539 177.366C-30.1656 180.627 -37.1356 184.725 -36.9892 190.417C-56.8087 192.301 -59.8001 189.541 -54.1345 174.503C-53.5639 172.975 -51.8972 171.843 -51.3945 170.317C-44.5844 149.492 -44.6081 149.475 -22.5618 148.225C-15.6705 153.501 -8.93388 152.504 -2.2928 147.724Z" fill="#EE8700"/>
</svg>
