<svg width="337" height="74" viewBox="0 0 337 74" fill="none" xmlns="http://www.w3.org/2000/svg">
<path d="M208.926 70.024C206.671 70.024 204.508 69.128 202.913 67.5332C201.318 65.9384 200.422 63.7754 200.422 61.52C200.422 59.2646 201.318 57.1015 202.913 55.5067C204.508 53.9119 206.671 53.016 208.926 53.016H335.239C334.604 51.8496 333.666 50.876 332.525 50.1973C331.383 49.5186 330.08 49.1599 328.751 49.1589H77.6755C74.4165 49.1882 71.301 50.5034 69.0069 52.8183C66.7128 55.1332 65.4257 58.2604 65.4257 61.5195C65.4257 64.7786 66.7128 67.9058 69.0069 70.2206C71.301 72.5355 74.4165 73.8506 77.6755 73.8799H328.752C330.081 73.879 331.384 73.5204 332.526 72.8417C333.667 72.163 334.605 71.1893 335.241 70.0229L208.926 70.024Z" fill="#FFB24D"/>
<path d="M335.406 57.7029H215.312C215.128 57.7029 214.952 57.6298 214.822 57.4996C214.692 57.3695 214.618 57.193 214.618 57.0089C214.618 56.8249 214.692 56.6483 214.822 56.5182C214.952 56.388 215.128 56.3149 215.312 56.3149H335.406C335.59 56.3149 335.767 56.388 335.897 56.5182C336.027 56.6483 336.1 56.8249 336.1 57.0089C336.1 57.193 336.027 57.3695 335.897 57.4996C335.767 57.6298 335.59 57.7029 335.406 57.7029Z" fill="#CCCCCC"/>
<path d="M335.406 62.2151H215.312C215.128 62.2151 214.952 62.1421 214.822 62.0119C214.692 61.8818 214.618 61.7052 214.618 61.5212C214.618 61.3371 214.692 61.1606 214.822 61.0305C214.952 60.9003 215.128 60.8271 215.312 60.8271H335.406C335.59 60.8271 335.767 60.9003 335.897 61.0305C336.027 61.1606 336.1 61.3371 336.1 61.5212C336.1 61.7052 336.027 61.8818 335.897 62.0119C335.767 62.1421 335.59 62.2151 335.406 62.2151Z" fill="#CCCCCC"/>
<path d="M335.406 66.7261H215.312C215.128 66.7261 214.952 66.653 214.822 66.5228C214.692 66.3927 214.618 66.2162 214.618 66.0321C214.618 65.848 214.692 65.6715 214.822 65.5414C214.952 65.4112 215.128 65.3381 215.312 65.3381H335.406C335.59 65.3381 335.767 65.4112 335.897 65.5414C336.027 65.6715 336.1 65.848 336.1 66.0321C336.1 66.2162 336.027 66.3927 335.897 66.5228C335.767 66.653 335.59 66.7261 335.406 66.7261Z" fill="#CCCCCC"/>
<path d="M176.299 46.074C174.044 46.074 171.881 45.178 170.286 43.5832C168.691 41.9884 167.795 39.8253 167.795 37.5699C167.795 35.3145 168.691 33.1515 170.286 31.5567C171.881 29.9619 174.044 29.066 176.299 29.066H302.612C301.977 27.8997 301.04 26.9261 299.898 26.2474C298.757 25.5687 297.453 25.21 296.125 25.209H45.0455C41.7865 25.2383 38.671 26.5534 36.3769 28.8683C34.0828 31.1831 32.7957 34.3104 32.7957 37.5695C32.7957 40.8285 34.0828 43.9558 36.3769 46.2706C38.671 48.5855 41.7865 49.9006 45.0455 49.9299H296.124C297.452 49.9288 298.756 49.5701 299.897 48.8914C301.039 48.2127 301.976 47.2391 302.611 46.0729L176.299 46.074Z" fill="#EE8D0E"/>
<path d="M302.779 33.752H182.685C182.501 33.752 182.325 33.6789 182.195 33.5488C182.065 33.4186 181.991 33.2421 181.991 33.058C181.991 32.874 182.065 32.6975 182.195 32.5673C182.325 32.4372 182.501 32.364 182.685 32.364H302.779C302.964 32.364 303.14 32.4372 303.27 32.5673C303.4 32.6975 303.474 32.874 303.474 33.058C303.474 33.2421 303.4 33.4186 303.27 33.5488C303.14 33.6789 302.964 33.752 302.779 33.752Z" fill="#CCCCCC"/>
<path d="M302.779 38.264H182.685C182.501 38.264 182.325 38.1909 182.195 38.0607C182.065 37.9306 181.991 37.754 181.991 37.5699C181.991 37.3859 182.065 37.2094 182.195 37.0792C182.325 36.9491 182.501 36.876 182.685 36.876H302.779C302.964 36.876 303.14 36.9491 303.27 37.0792C303.4 37.2094 303.474 37.3859 303.474 37.5699C303.474 37.754 303.4 37.9306 303.27 38.0607C303.14 38.1909 302.964 38.264 302.779 38.264Z" fill="#CCCCCC"/>
<path d="M302.779 42.7769H182.685C182.501 42.7769 182.325 42.7038 182.195 42.5737C182.065 42.4435 181.991 42.267 181.991 42.0829C181.991 41.8989 182.065 41.7224 182.195 41.5922C182.325 41.4621 182.501 41.3889 182.685 41.3889H302.779C302.964 41.3889 303.14 41.4621 303.27 41.5922C303.4 41.7224 303.474 41.8989 303.474 42.0829C303.474 42.267 303.4 42.4435 303.27 42.5737C303.14 42.7038 302.964 42.7769 302.779 42.7769Z" fill="#CCCCCC"/>
<path d="M143.676 21.322C141.421 21.322 139.258 20.4261 137.663 18.8313C136.068 17.2365 135.172 15.0734 135.172 12.818C135.172 10.5626 136.068 8.39962 137.663 6.80481C139.258 5.21 141.421 4.31403 143.676 4.31403H269.985C269.35 3.14783 268.413 2.17426 267.271 1.49557C266.13 0.816887 264.826 0.458134 263.498 0.457031H12.4214C9.1625 0.486345 6.047 1.80153 3.75287 4.11639C1.45874 6.43125 0.171631 9.55845 0.171631 12.8175C0.171631 16.0766 1.45874 19.2038 3.75287 21.5187C6.047 23.8335 9.1625 25.1487 12.4214 25.178H263.498C264.826 25.1769 266.13 24.8182 267.271 24.1395C268.413 23.4608 269.35 22.4872 269.985 21.321L143.676 21.322Z" fill="#FF9200"/>
<path d="M270.153 9.00519H150.059C149.875 9.00519 149.699 8.93206 149.569 8.80191C149.439 8.67176 149.365 8.49525 149.365 8.31119C149.365 8.12713 149.439 7.95058 149.569 7.82043C149.699 7.69028 149.875 7.61719 150.059 7.61719H270.153C270.338 7.61719 270.514 7.69028 270.644 7.82043C270.774 7.95058 270.847 8.12713 270.847 8.31119C270.847 8.49525 270.774 8.67176 270.644 8.80191C270.514 8.93206 270.338 9.00519 270.153 9.00519Z" fill="#CCCCCC"/>
<path d="M270.153 13.5169H150.059C149.875 13.5169 149.699 13.4438 149.569 13.3137C149.439 13.1835 149.365 13.007 149.365 12.8229C149.365 12.6389 149.439 12.4624 149.569 12.3322C149.699 12.2021 149.875 12.1289 150.059 12.1289H270.153C270.338 12.1289 270.514 12.2021 270.644 12.3322C270.774 12.4624 270.847 12.6389 270.847 12.8229C270.847 13.007 270.774 13.1835 270.644 13.3137C270.514 13.4438 270.338 13.5169 270.153 13.5169Z" fill="#CCCCCC"/>
<path d="M270.153 18.0281H150.059C149.875 18.0281 149.699 17.955 149.569 17.8248C149.439 17.6947 149.365 17.5182 149.365 17.3341C149.365 17.15 149.439 16.9735 149.569 16.8434C149.699 16.7132 149.875 16.6401 150.059 16.6401H270.153C270.338 16.6401 270.514 16.7132 270.644 16.8434C270.774 16.9735 270.847 17.15 270.847 17.3341C270.847 17.5182 270.774 17.6947 270.644 17.8248C270.514 17.955 270.338 18.0281 270.153 18.0281Z" fill="#CCCCCC"/>
</svg>
