<svg width="45" height="31" viewBox="0 0 45 31" fill="none" xmlns="http://www.w3.org/2000/svg">
<path d="M22.5504 30.174C17.7738 30.1428 13.0569 29.1099 8.70439 27.142C8.44526 27.0266 8.22531 26.8382 8.07136 26.5999C7.91742 26.3616 7.83615 26.0837 7.83742 25.8V13.888C7.83795 13.498 7.99309 13.1242 8.26884 12.8484C8.5446 12.5727 8.91842 12.4176 9.30839 12.417H35.7914C36.1814 12.4176 36.5552 12.5727 36.831 12.8484C37.1067 13.1242 37.2619 13.498 37.2624 13.888V25.795C37.2637 26.0787 37.1824 26.3566 37.0284 26.5949C36.8745 26.8332 36.6545 27.0216 36.3954 27.137C32.0436 29.1065 27.327 30.1411 22.5504 30.174Z" fill="#FF9100"/>
<path d="M22.5463 20.523C22.3499 20.5232 22.1554 20.4841 21.9743 20.408L0.974337 11.548C0.703455 11.4338 0.472993 11.2411 0.312686 10.9947C0.152378 10.7483 0.0695725 10.4595 0.0749536 10.1656C0.0803347 9.87167 0.173648 9.58611 0.342867 9.34573C0.512087 9.10536 0.749475 8.92119 1.02436 8.817L22.0244 0.850007C22.3624 0.720367 22.7363 0.720367 23.0743 0.850007L43.7933 8.817C44.0667 8.92202 44.3025 9.10624 44.4705 9.34606C44.6385 9.58587 44.7311 9.87039 44.7365 10.1632C44.7419 10.4559 44.6598 10.7437 44.5006 10.9895C44.3415 11.2353 44.1127 11.428 43.8434 11.543L23.1243 20.403C22.9417 20.4816 22.7451 20.5224 22.5463 20.523Z" fill="#FF9100"/>
<path d="M10.2904 27.947C11.374 27.947 12.2524 27.0686 12.2524 25.985C12.2524 24.9014 11.374 24.023 10.2904 24.023C9.20679 24.023 8.32837 24.9014 8.32837 25.985C8.32837 27.0686 9.20679 27.947 10.2904 27.947Z" fill="white"/>
<path opacity="0.2" d="M43.9163 10.283L23.1963 19.143C23.0347 19.2117 22.8609 19.247 22.6853 19.247C22.5097 19.247 22.3359 19.2117 22.1743 19.143L1.17431 10.283C0.910633 10.1742 0.690716 9.98071 0.549311 9.733C0.456805 9.89354 0.39948 10.0719 0.381159 10.2563C0.362837 10.4407 0.383946 10.6268 0.443049 10.8024C0.502151 10.9781 0.597919 11.1391 0.723993 11.2749C0.850068 11.4107 1.00356 11.5181 1.17431 11.59L22.1743 20.45C22.3359 20.5186 22.5097 20.554 22.6853 20.554C22.8609 20.554 23.0347 20.5186 23.1963 20.45L43.9163 11.59C44.0863 11.5174 44.2389 11.4097 44.3642 11.2738C44.4894 11.1379 44.5844 10.977 44.6429 10.8017C44.7014 10.6264 44.7221 10.4407 44.7035 10.2568C44.685 10.0729 44.6276 9.89509 44.5353 9.735C44.3949 9.98054 44.1773 10.1728 43.9163 10.282V10.283Z" fill="black"/>
<path d="M10.4543 25.977C10.541 25.977 10.6242 25.9426 10.6855 25.8812C10.7469 25.8199 10.7813 25.7367 10.7813 25.65V14.71L21.5643 10.782C21.651 10.7833 21.7347 10.7502 21.797 10.6898C21.8593 10.6294 21.895 10.5467 21.8963 10.46C21.8976 10.3733 21.8645 10.2896 21.8041 10.2273C21.7437 10.1651 21.661 10.1293 21.5743 10.128L10.7913 14.056C10.7045 14.0539 10.6181 14.0695 10.5375 14.1019C10.4569 14.1342 10.3837 14.1825 10.3223 14.244C10.2594 14.3043 10.2093 14.3766 10.1749 14.4567C10.1405 14.5367 10.1227 14.6229 10.1223 14.71V25.65C10.1223 25.6934 10.1309 25.7363 10.1477 25.7763C10.1644 25.8163 10.189 25.8526 10.2198 25.883C10.2507 25.9135 10.2874 25.9374 10.3276 25.9536C10.3679 25.9697 10.411 25.9777 10.4543 25.977Z" fill="white"/>
</svg>
