<svg width="31" height="32" viewBox="0 0 31 32" fill="none" xmlns="http://www.w3.org/2000/svg">
<path d="M30.6905 15.8346C30.6905 12.807 29.7927 9.84737 28.1106 7.32998C26.4286 4.81259 24.0377 2.85048 21.2406 1.69186C18.4434 0.53323 15.3655 0.2301 12.396 0.820762C9.42656 1.41142 6.69893 2.86935 4.55807 5.01022C2.4172 7.15108 0.959276 9.87871 0.368614 12.8482C-0.222049 15.8176 0.0810812 18.8956 1.23971 21.6928C2.39833 24.4899 4.36038 26.8807 6.87777 28.5628C9.39516 30.2448 12.3548 31.1427 15.3825 31.1427C15.4725 31.1427 15.5615 31.1427 15.6515 31.1427V19.2266H12.3624V15.3936H15.6515V12.5736C15.6515 9.30263 17.6515 7.52261 20.5655 7.52261C21.5505 7.51904 22.535 7.56945 23.5145 7.67361V11.0916H21.5025C19.9145 11.0916 19.6024 11.8466 19.6024 12.9536V15.3946H23.4025L22.9074 19.2276H19.6074V30.5556C22.801 29.637 25.6093 27.7046 27.6083 25.05C29.6073 22.3954 30.6888 19.1627 30.6895 15.8396L30.6905 15.8346Z" fill="white"/>
</svg>
