<svg width="21" height="21" viewBox="0 0 21 21" fill="none" xmlns="http://www.w3.org/2000/svg">
<path d="M16.8604 20.464C16.7737 20.4641 16.6878 20.4461 16.6084 20.411L10.8684 17.855L5.12845 20.411C5.0242 20.4573 4.90925 20.474 4.79617 20.4593C4.68309 20.4446 4.57622 20.3991 4.48724 20.3278C4.39827 20.2564 4.33059 20.162 4.29165 20.0548C4.25271 19.9477 4.244 19.8319 4.26645 19.72L5.53244 13.378L1.10644 8.94504C1.0271 8.86535 0.970815 8.76567 0.94354 8.65659C0.916264 8.5475 0.919005 8.43307 0.951505 8.32542C0.984004 8.21778 1.04505 8.12092 1.12814 8.04515C1.21123 7.96938 1.31325 7.9175 1.42343 7.89503L7.76645 6.62404L10.2994 0.916046C10.3551 0.814004 10.4372 0.728828 10.5372 0.669495C10.6371 0.610161 10.7512 0.578857 10.8674 0.578857C10.9837 0.578857 11.0978 0.610161 11.1977 0.669495C11.2977 0.728828 11.3798 0.814004 11.4355 0.916046L13.9684 6.62404L20.3114 7.89503C20.4216 7.9175 20.5237 7.96938 20.6067 8.04515C20.6898 8.12092 20.7509 8.21778 20.7834 8.32542C20.8159 8.43307 20.8186 8.5475 20.7913 8.65659C20.7641 8.76567 20.7078 8.86535 20.6284 8.94504L16.2025 13.378L17.4684 19.72C17.4866 19.8103 17.4846 19.9034 17.4624 19.9928C17.4403 20.0821 17.3986 20.1654 17.3403 20.2367C17.282 20.308 17.2087 20.3654 17.1255 20.4049C17.0424 20.4444 16.9515 20.4649 16.8594 20.465L16.8604 20.464ZM10.8684 16.551C10.9552 16.5508 11.0411 16.5689 11.1205 16.604L16.0204 18.784L14.9204 13.294C14.9004 13.1936 14.9054 13.0898 14.9351 12.9918C14.9647 12.8937 15.0181 12.8045 15.0905 12.732L18.9304 8.88605L13.4104 7.78004C13.313 7.7605 13.2216 7.71789 13.144 7.65578C13.0664 7.59366 13.0049 7.51385 12.9644 7.42303L10.8644 2.70004L8.76443 7.42303C8.72409 7.51389 8.66254 7.59375 8.58493 7.65587C8.50732 7.71799 8.41594 7.76058 8.31845 7.78004L2.79843 8.88605L6.63846 12.732C6.71073 12.8046 6.76402 12.8938 6.79367 12.9918C6.82332 13.0898 6.82839 13.1936 6.80844 13.294L5.70843 18.784L10.6084 16.604C10.6881 16.5688 10.7743 16.5507 10.8614 16.551H10.8684Z" fill="#00DBD0"/>
</svg>
